<?xml version="1.0" encoding="UTF-8" standalone="no"?>
<!DOCTYPE svg PUBLIC "-//W3C//DTD SVG 1.1//EN"
 "http://www.w3.org/Graphics/SVG/1.1/DTD/svg11.dtd">
<!-- Generated by graphviz version 2.47.3 (20210619.1520)
 -->
<!-- Title: html Pages: 1 -->
<svg width="1458pt" height="1010pt"
 viewBox="0.00 0.00 1458.00 1010.00" xmlns="http://www.w3.org/2000/svg" xmlns:xlink="http://www.w3.org/1999/xlink">
<g id="graph0" class="graph" transform="scale(1 1) rotate(0) translate(4 1006)">
<title>html</title>
<polygon fill="white" stroke="transparent" points="-4,4 -4,-1006 1454,-1006 1454,4 -4,4"/>
<!-- TODO -->
<g id="node1" class="node">
<title>TODO</title>
<text text-anchor="middle" x="176.5" y="-14.3" font-family="Times New Roman,serif" font-size="14.00">TODO</text>
</g>
<!-- BLOCKED -->
<g id="node2" class="node">
<title>BLOCKED</title>
<text text-anchor="middle" x="540.5" y="-14.3" font-family="Times New Roman,serif" font-size="14.00">BLOCKED</text>
</g>
<!-- TODO&#45;&gt;BLOCKED -->
<g id="edge1" class="edge">
<title>TODO&#45;&gt;BLOCKED</title>
<path fill="none" stroke="black" d="M204.71,-18C265.21,-18 411.68,-18 489.29,-18"/>
<polygon fill="black" stroke="black" points="489.32,-21.5 499.32,-18 489.32,-14.5 489.32,-21.5"/>
</g>
<!-- INPROGRESS -->
<g id="node3" class="node">
<title>INPROGRESS</title>
<text text-anchor="middle" x="903" y="-14.3" font-family="Times New Roman,serif" font-size="14.00">INPROGRESS</text>
</g>
<!-- BLOCKED&#45;&gt;INPROGRESS -->
<g id="edge2" class="edge">
<title>BLOCKED&#45;&gt;INPROGRESS</title>
<path fill="none" stroke="black" d="M581.8,-18C644.8,-18 767.02,-18 840.89,-18"/>
<polygon fill="black" stroke="black" points="840.98,-21.5 850.98,-18 840.98,-14.5 840.98,-21.5"/>
</g>
<!-- DONE -->
<g id="node4" class="node">
<title>DONE</title>
<text text-anchor="middle" x="1282" y="-14.3" font-family="Times New Roman,serif" font-size="14.00">DONE</text>
</g>
<!-- INPROGRESS&#45;&gt;DONE -->
<g id="edge3" class="edge">
<title>INPROGRESS&#45;&gt;DONE</title>
<path fill="none" stroke="black" d="M955.24,-18C1032.44,-18 1176.74,-18 1244.32,-18"/>
<polygon fill="black" stroke="black" points="1244.49,-21.5 1254.49,-18 1244.49,-14.5 1244.49,-21.5"/>
</g>
<!-- Issue_MPP_17 -->
<g id="node5" class="node"><a href ="https://bluesheenah.atlassian.net/browse/MPP-17"  >
<title>Issue_MPP_17</title>
<polygon fill="#ff0000" stroke="transparent" points="1114,-89 1114,-159 1124,-159 1124,-89 1114,-89"/>
<polygon fill="none" stroke="black" points="1114,-89 1114,-159 1124,-159 1124,-89 1114,-89"/>
<polygon fill="#888888" stroke="transparent" points="1124,-89 1124,-159 1450,-159 1450,-89 1124,-89"/>
<polygon fill="none" stroke="black" points="1124,-89 1124,-159 1450,-159 1450,-89 1124,-89"/>
<text text-anchor="start" x="1243.5" y="-142.8" font-family="Times New Roman,serif" font-size="14.00">Issue_MPP_17</text>
<text text-anchor="start" x="1129" y="-127.8" font-family="Times New Roman,serif" font-size="14.00">Bug_API_Exception Logging lacks informative message</text>
<text text-anchor="start" x="1271.5" y="-112.8" font-family="Times New Roman,serif" font-size="14.00">Done</text>
<text text-anchor="start" x="1245" y="-97.8" font-family="Times New Roman,serif" font-size="14.00">Andrew_Hiron</text>
<polygon fill="#888888" stroke="transparent" points="1114,-79 1114,-89 1450,-89 1450,-79 1114,-79"/>
<polygon fill="none" stroke="black" points="1114,-79 1114,-89 1450,-89 1450,-79 1114,-79"/>
<polygon fill="#ff8000" stroke="transparent" points="1114,-54 1114,-79 1450,-79 1450,-54 1114,-54"/>
<polygon fill="none" stroke="black" points="1114,-54 1114,-79 1450,-79 1450,-54 1114,-54"/>
<text text-anchor="start" x="1245.5" y="-62.8" font-family="Times New Roman,serif" font-size="14.00">Orange Core</text>></a></g>
<!-- Issue_MPP_16 -->
<g id="node6" class="node"><a href ="https://bluesheenah.atlassian.net/browse/MPP-16"  >
<title>Issue_MPP_16</title>
<polygon fill="#00cc00" stroke="transparent" points="19.5,-104 19.5,-174 29.5,-174 29.5,-104 19.5,-104"/>
<polygon fill="none" stroke="black" points="19.5,-104 19.5,-174 29.5,-174 29.5,-104 19.5,-104"/>
<polygon fill="#ffffff" stroke="transparent" points="29.5,-104 29.5,-174 333.5,-174 333.5,-104 29.5,-104"/>
<polygon fill="none" stroke="black" points="29.5,-104 29.5,-174 333.5,-174 333.5,-104 29.5,-104"/>
<text text-anchor="start" x="138" y="-157.8" font-family="Times New Roman,serif" font-size="14.00">Issue_MPP_16</text>
<text text-anchor="start" x="34.5" y="-142.8" font-family="Times New Roman,serif" font-size="14.00">API_Port the API to operate on the new DB schema</text>
<text text-anchor="start" x="162.5" y="-127.8" font-family="Times New Roman,serif" font-size="14.00">To Do</text>
<text text-anchor="start" x="139.5" y="-112.8" font-family="Times New Roman,serif" font-size="14.00">Andrew_Hiron</text>
<polygon fill="#ffffff" stroke="transparent" points="19.5,-79 19.5,-104 333.5,-104 333.5,-79 19.5,-79"/>
<polygon fill="none" stroke="black" points="19.5,-79 19.5,-104 333.5,-104 333.5,-79 19.5,-79"/>
<text text-anchor="start" x="96.5" y="-87.8" font-family="Times New Roman,serif" font-size="14.00">API optimisation and update</text>
<polygon fill="#ff8000" stroke="transparent" points="19.5,-54 19.5,-79 333.5,-79 333.5,-54 19.5,-54"/>
<polygon fill="none" stroke="black" points="19.5,-54 19.5,-79 333.5,-79 333.5,-54 19.5,-54"/>
<text text-anchor="start" x="140" y="-62.8" font-family="Times New Roman,serif" font-size="14.00">Orange Core</text>></a></g>
<!-- Issue_MPP_15 -->
<g id="node7" class="node"><a href ="https://bluesheenah.atlassian.net/browse/MPP-15"  >
<title>Issue_MPP_15</title>
<polygon fill="#00cc00" stroke="transparent" points="56.5,-242 56.5,-312 66.5,-312 66.5,-242 56.5,-242"/>
<polygon fill="none" stroke="black" points="56.5,-242 56.5,-312 66.5,-312 66.5,-242 56.5,-242"/>
<polygon fill="#ffffff" stroke="transparent" points="66.5,-242 66.5,-312 296.5,-312 296.5,-242 66.5,-242"/>
<polygon fill="none" stroke="black" points="66.5,-242 66.5,-312 296.5,-312 296.5,-242 66.5,-242"/>
<text text-anchor="start" x="138" y="-295.8" font-family="Times New Roman,serif" font-size="14.00">Issue_MPP_15</text>
<text text-anchor="start" x="71.5" y="-280.8" font-family="Times New Roman,serif" font-size="14.00">API_Deprecate redundant API features</text>
<text text-anchor="start" x="162.5" y="-265.8" font-family="Times New Roman,serif" font-size="14.00">To Do</text>
<text text-anchor="start" x="139.5" y="-250.8" font-family="Times New Roman,serif" font-size="14.00">Andrew_Hiron</text>
<polygon fill="#ffffff" stroke="transparent" points="56.5,-217 56.5,-242 296.5,-242 296.5,-217 56.5,-217"/>
<polygon fill="none" stroke="black" points="56.5,-217 56.5,-242 296.5,-242 296.5,-217 56.5,-217"/>
<text text-anchor="start" x="96.5" y="-225.8" font-family="Times New Roman,serif" font-size="14.00">API optimisation and update</text>
<polygon fill="#ff8000" stroke="transparent" points="56.5,-192 56.5,-217 296.5,-217 296.5,-192 56.5,-192"/>
<polygon fill="none" stroke="black" points="56.5,-192 56.5,-217 296.5,-217 296.5,-192 56.5,-192"/>
<text text-anchor="start" x="140" y="-200.8" font-family="Times New Roman,serif" font-size="14.00">Orange Core</text>></a></g>
<!-- Issue_MPP_14 -->
<g id="node8" class="node"><a href ="https://bluesheenah.atlassian.net/browse/MPP-14"  >
<title>Issue_MPP_14</title>
<polygon fill="#00cc00" stroke="transparent" points="790,-104 790,-174 800,-174 800,-104 790,-104"/>
<polygon fill="none" stroke="black" points="790,-104 790,-174 800,-174 800,-104 790,-104"/>
<polygon fill="#00cc00" stroke="transparent" points="800,-104 800,-174 1016,-174 1016,-104 800,-104"/>
<polygon fill="none" stroke="black" points="800,-104 800,-174 1016,-174 1016,-104 800,-104"/>
<text text-anchor="start" x="864.5" y="-157.8" font-family="Times New Roman,serif" font-size="14.00">Issue_MPP_14</text>
<text text-anchor="start" x="805" y="-142.8" font-family="Times New Roman,serif" font-size="14.00">API_Identify redundant API features</text>
<text text-anchor="start" x="875.5" y="-127.8" font-family="Times New Roman,serif" font-size="14.00">In Progress</text>
<text text-anchor="start" x="866" y="-112.8" font-family="Times New Roman,serif" font-size="14.00">Andrew_Hiron</text>
<polygon fill="#00cc00" stroke="transparent" points="790,-79 790,-104 1016,-104 1016,-79 790,-79"/>
<polygon fill="none" stroke="black" points="790,-79 790,-104 1016,-104 1016,-79 790,-79"/>
<text text-anchor="start" x="823" y="-87.8" font-family="Times New Roman,serif" font-size="14.00">API optimisation and update</text>
<polygon fill="#ff8000" stroke="transparent" points="790,-54 790,-79 1016,-79 1016,-54 790,-54"/>
<polygon fill="none" stroke="black" points="790,-54 790,-79 1016,-79 1016,-54 790,-54"/>
<text text-anchor="start" x="866.5" y="-62.8" font-family="Times New Roman,serif" font-size="14.00">Orange Core</text>></a></g>
<!-- Issue_MPP_13 -->
<g id="node9" class="node"><a href ="https://bluesheenah.atlassian.net/browse/MPP-13"  >
<title>Issue_MPP_13</title>
<polygon fill="#00cc00" stroke="transparent" points="68.5,-380 68.5,-450 78.5,-450 78.5,-380 68.5,-380"/>
<polygon fill="none" stroke="black" points="68.5,-380 68.5,-450 78.5,-450 78.5,-380 68.5,-380"/>
<polygon fill="#ffffff" stroke="transparent" points="78.5,-380 78.5,-450 284.5,-450 284.5,-380 78.5,-380"/>
<polygon fill="none" stroke="black" points="78.5,-380 78.5,-450 284.5,-450 284.5,-380 78.5,-380"/>
<text text-anchor="start" x="138" y="-433.8" font-family="Times New Roman,serif" font-size="14.00">Issue_MPP_13</text>
<text text-anchor="start" x="83.5" y="-418.8" font-family="Times New Roman,serif" font-size="14.00">UI_Modernise the UI for Feature 2</text>
<text text-anchor="start" x="162.5" y="-403.8" font-family="Times New Roman,serif" font-size="14.00">To Do</text>
<text text-anchor="start" x="143.5" y="-388.8" font-family="Times New Roman,serif" font-size="14.00">Theo_Macris</text>
<polygon fill="#ffffff" stroke="transparent" points="68.5,-355 68.5,-380 284.5,-380 284.5,-355 68.5,-355"/>
<polygon fill="none" stroke="black" points="68.5,-355 68.5,-380 284.5,-380 284.5,-355 68.5,-355"/>
<text text-anchor="start" x="128" y="-363.8" font-family="Times New Roman,serif" font-size="14.00">UI modernisation</text>
<polygon fill="#ff8000" stroke="transparent" points="68.5,-330 68.5,-355 284.5,-355 284.5,-330 68.5,-330"/>
<polygon fill="none" stroke="black" points="68.5,-330 68.5,-355 284.5,-355 284.5,-330 68.5,-330"/>
<text text-anchor="start" x="140" y="-338.8" font-family="Times New Roman,serif" font-size="14.00">Orange Core</text>></a></g>
<!-- Issue_MPP_12 -->
<g id="node10" class="node"><a href ="https://bluesheenah.atlassian.net/browse/MPP-12"  >
<title>Issue_MPP_12</title>
<polygon fill="#00cc00" stroke="transparent" points="795,-242 795,-312 805,-312 805,-242 795,-242"/>
<polygon fill="none" stroke="black" points="795,-242 795,-312 805,-312 805,-242 795,-242"/>
<polygon fill="#00cc00" stroke="transparent" points="805,-242 805,-312 1011,-312 1011,-242 805,-242"/>
<polygon fill="none" stroke="black" points="805,-242 805,-312 1011,-312 1011,-242 805,-242"/>
<text text-anchor="start" x="864.5" y="-295.8" font-family="Times New Roman,serif" font-size="14.00">Issue_MPP_12</text>
<text text-anchor="start" x="810" y="-280.8" font-family="Times New Roman,serif" font-size="14.00">UI_Modernise the UI for Feature 1</text>
<text text-anchor="start" x="875.5" y="-265.8" font-family="Times New Roman,serif" font-size="14.00">In Progress</text>
<text text-anchor="start" x="870" y="-250.8" font-family="Times New Roman,serif" font-size="14.00">Theo_Macris</text>
<polygon fill="#00cc00" stroke="transparent" points="795,-217 795,-242 1011,-242 1011,-217 795,-217"/>
<polygon fill="none" stroke="black" points="795,-217 795,-242 1011,-242 1011,-217 795,-217"/>
<text text-anchor="start" x="854.5" y="-225.8" font-family="Times New Roman,serif" font-size="14.00">UI modernisation</text>
<polygon fill="#ff8000" stroke="transparent" points="795,-192 795,-217 1011,-217 1011,-192 795,-192"/>
<polygon fill="none" stroke="black" points="795,-192 795,-217 1011,-217 1011,-192 795,-192"/>
<text text-anchor="start" x="866.5" y="-200.8" font-family="Times New Roman,serif" font-size="14.00">Orange Core</text>></a></g>
<!-- Issue_MPP_11 -->
<g id="node11" class="node"><a href ="https://bluesheenah.atlassian.net/browse/MPP-11"  >
<title>Issue_MPP_11</title>
<polygon fill="#00cc00" stroke="transparent" points="85.5,-518 85.5,-588 95.5,-588 95.5,-518 85.5,-518"/>
<polygon fill="none" stroke="black" points="85.5,-518 85.5,-588 95.5,-588 95.5,-518 85.5,-518"/>
<polygon fill="#ffffff" stroke="transparent" points="95.5,-518 95.5,-588 267.5,-588 267.5,-518 95.5,-518"/>
<polygon fill="none" stroke="black" points="95.5,-518 95.5,-588 267.5,-588 267.5,-518 95.5,-518"/>
<text text-anchor="start" x="138" y="-571.8" font-family="Times New Roman,serif" font-size="14.00">Issue_MPP_11</text>
<text text-anchor="start" x="100.5" y="-556.8" font-family="Times New Roman,serif" font-size="14.00">DB_Deploy new DB schema</text>
<text text-anchor="start" x="162.5" y="-541.8" font-family="Times New Roman,serif" font-size="14.00">To Do</text>
<text text-anchor="start" x="141.5" y="-526.8" font-family="Times New Roman,serif" font-size="14.00">Kapil_Chadha</text>
<polygon fill="#ffffff" stroke="transparent" points="85.5,-493 85.5,-518 267.5,-518 267.5,-493 85.5,-493"/>
<polygon fill="none" stroke="black" points="85.5,-493 85.5,-518 267.5,-518 267.5,-493 85.5,-493"/>
<text text-anchor="start" x="99.5" y="-501.8" font-family="Times New Roman,serif" font-size="14.00">Database Schema re&#45;design</text>
<polygon fill="#ff8000" stroke="transparent" points="85.5,-468 85.5,-493 267.5,-493 267.5,-468 85.5,-468"/>
<polygon fill="none" stroke="black" points="85.5,-468 85.5,-493 267.5,-493 267.5,-468 85.5,-468"/>
<text text-anchor="start" x="140" y="-476.8" font-family="Times New Roman,serif" font-size="14.00">Orange Core</text>></a></g>
<!-- Issue_MPP_10 -->
<g id="node12" class="node"><a href ="https://bluesheenah.atlassian.net/browse/MPP-10"  >
<title>Issue_MPP_10</title>
<polygon fill="#00cc00" stroke="transparent" points="728,-380 728,-450 738,-450 738,-380 728,-380"/>
<polygon fill="none" stroke="black" points="728,-380 728,-450 738,-450 738,-380 728,-380"/>
<polygon fill="#00cc00" stroke="transparent" points="738,-380 738,-450 1078,-450 1078,-380 738,-380"/>
<polygon fill="none" stroke="black" points="738,-380 738,-450 1078,-450 1078,-380 738,-380"/>
<text text-anchor="start" x="864.5" y="-433.8" font-family="Times New Roman,serif" font-size="14.00">Issue_MPP_10</text>
<text text-anchor="start" x="743" y="-418.8" font-family="Times New Roman,serif" font-size="14.00">DB_Re&#45;design DB Schema for efficiency and performance</text>
<text text-anchor="start" x="875.5" y="-403.8" font-family="Times New Roman,serif" font-size="14.00">In Progress</text>
<text text-anchor="start" x="868" y="-388.8" font-family="Times New Roman,serif" font-size="14.00">Kapil_Chadha</text>
<polygon fill="#00cc00" stroke="transparent" points="728,-355 728,-380 1078,-380 1078,-355 728,-355"/>
<polygon fill="none" stroke="black" points="728,-355 728,-380 1078,-380 1078,-355 728,-355"/>
<text text-anchor="start" x="826" y="-363.8" font-family="Times New Roman,serif" font-size="14.00">Database Schema re&#45;design</text>
<polygon fill="#ff8000" stroke="transparent" points="728,-330 728,-355 1078,-355 1078,-330 728,-330"/>
<polygon fill="none" stroke="black" points="728,-330 728,-355 1078,-355 1078,-330 728,-330"/>
<text text-anchor="start" x="866.5" y="-338.8" font-family="Times New Roman,serif" font-size="14.00">Orange Core</text>></a></g>
<!-- Issue_MPP_9 -->
<g id="node13" class="node"><a href ="https://bluesheenah.atlassian.net/browse/MPP-9"  >
<title>Issue_MPP_9</title>
<polygon fill="#00cc00" stroke="transparent" points="71.5,-656 71.5,-726 81.5,-726 81.5,-656 71.5,-656"/>
<polygon fill="none" stroke="black" points="71.5,-656 71.5,-726 81.5,-726 81.5,-656 71.5,-656"/>
<polygon fill="#ffffff" stroke="transparent" points="81.5,-656 81.5,-726 282.5,-726 282.5,-656 81.5,-656"/>
<polygon fill="none" stroke="black" points="81.5,-656 81.5,-726 282.5,-726 282.5,-656 81.5,-656"/>
<text text-anchor="start" x="142" y="-709.8" font-family="Times New Roman,serif" font-size="14.00">Issue_MPP_9</text>
<text text-anchor="start" x="86.5" y="-694.8" font-family="Times New Roman,serif" font-size="14.00">DB_Remove redundant DB tables</text>
<text text-anchor="start" x="163" y="-679.8" font-family="Times New Roman,serif" font-size="14.00">To Do</text>
<text text-anchor="start" x="142" y="-664.8" font-family="Times New Roman,serif" font-size="14.00">Kapil_Chadha</text>
<polygon fill="#ffffff" stroke="transparent" points="71.5,-631 71.5,-656 282.5,-656 282.5,-631 71.5,-631"/>
<polygon fill="none" stroke="black" points="71.5,-631 71.5,-656 282.5,-656 282.5,-631 71.5,-631"/>
<text text-anchor="start" x="100" y="-639.8" font-family="Times New Roman,serif" font-size="14.00">Database Schema re&#45;design</text>
<polygon fill="#ff8000" stroke="transparent" points="71.5,-606 71.5,-631 282.5,-631 282.5,-606 71.5,-606"/>
<polygon fill="none" stroke="black" points="71.5,-606 71.5,-631 282.5,-631 282.5,-606 71.5,-606"/>
<text text-anchor="start" x="140.5" y="-614.8" font-family="Times New Roman,serif" font-size="14.00">Orange Core</text>></a></g>
<!-- Issue_MPP_8 -->
<g id="node14" class="node"><a href ="https://bluesheenah.atlassian.net/browse/MPP-8"  >
<title>Issue_MPP_8</title>
<polygon fill="#00cc00" stroke="transparent" points="1189,-228 1189,-298 1199,-298 1199,-228 1189,-228"/>
<polygon fill="none" stroke="black" points="1189,-228 1189,-298 1199,-298 1199,-228 1189,-228"/>
<polygon fill="#888888" stroke="transparent" points="1199,-228 1199,-298 1376,-298 1376,-228 1199,-228"/>
<polygon fill="none" stroke="black" points="1199,-228 1199,-298 1376,-298 1376,-228 1199,-228"/>
<text text-anchor="start" x="1247.5" y="-281.8" font-family="Times New Roman,serif" font-size="14.00">Issue_MPP_8</text>
<text text-anchor="start" x="1204" y="-266.8" font-family="Times New Roman,serif" font-size="14.00">DB_Assess current DB usage</text>
<text text-anchor="start" x="1272" y="-251.8" font-family="Times New Roman,serif" font-size="14.00">Done</text>
<text text-anchor="start" x="1247.5" y="-236.8" font-family="Times New Roman,serif" font-size="14.00">Kapil_Chadha</text>
<polygon fill="#888888" stroke="transparent" points="1189,-203 1189,-228 1376,-228 1376,-203 1189,-203"/>
<polygon fill="none" stroke="black" points="1189,-203 1189,-228 1376,-228 1376,-203 1189,-203"/>
<text text-anchor="start" x="1205.5" y="-211.8" font-family="Times New Roman,serif" font-size="14.00">Database Schema re&#45;design</text>
<polygon fill="#ff8000" stroke="transparent" points="1189,-178 1189,-203 1376,-203 1376,-178 1189,-178"/>
<polygon fill="none" stroke="black" points="1189,-178 1189,-203 1376,-203 1376,-178 1189,-178"/>
<text text-anchor="start" x="1246" y="-186.8" font-family="Times New Roman,serif" font-size="14.00">Orange Core</text>></a></g>
<!-- Issue_MPP_7 -->
<g id="node15" class="node"><a href ="https://bluesheenah.atlassian.net/browse/MPP-7"  >
<title>Issue_MPP_7</title>
<polygon fill="#00cc00" stroke="transparent" points="45.5,-794 45.5,-864 118.5,-864 118.5,-794 45.5,-794"/>
<polygon fill="none" stroke="black" points="45.5,-794 45.5,-864 118.5,-864 118.5,-794 45.5,-794"/>
<polygon fill="#ffffff" stroke="transparent" points="118.5,-794 118.5,-864 308.5,-864 308.5,-794 118.5,-794"/>
<polygon fill="none" stroke="black" points="118.5,-794 118.5,-864 308.5,-864 308.5,-794 118.5,-794"/>
<text text-anchor="start" x="173.5" y="-847.8" font-family="Times New Roman,serif" font-size="14.00">Issue_MPP_7</text>
<text text-anchor="start" x="155" y="-832.8" font-family="Times New Roman,serif" font-size="14.00">Infra_Implement IaC</text>
<text text-anchor="start" x="194.5" y="-817.8" font-family="Times New Roman,serif" font-size="14.00">To Do</text>
<text text-anchor="start" x="168.5" y="-802.8" font-family="Times New Roman,serif" font-size="14.00">Andrew_Yahoo</text>
<polygon fill="#ffffff" stroke="transparent" points="45.5,-769 45.5,-794 308.5,-794 308.5,-769 45.5,-769"/>
<polygon fill="none" stroke="black" points="45.5,-769 45.5,-794 308.5,-794 308.5,-769 45.5,-769"/>
<text text-anchor="start" x="50.5" y="-777.8" font-family="Times New Roman,serif" font-size="14.00">Cloud platform optimisation for performance</text>
<polygon fill="#66bbee" stroke="transparent" points="45.5,-744 45.5,-769 308.5,-769 308.5,-744 45.5,-744"/>
<polygon fill="none" stroke="black" points="45.5,-744 45.5,-769 308.5,-769 308.5,-744 45.5,-744"/>
<text text-anchor="start" x="146.5" y="-752.8" font-family="Times New Roman,serif" font-size="14.00">Contractor</text>></a></g>
<!-- Issue_MPP_6 -->
<g id="node16" class="node"><a href ="https://bluesheenah.atlassian.net/browse/MPP-6"  >
<title>Issue_MPP_6</title>
<polygon fill="#00cc00" stroke="transparent" points="0.5,-932 0.5,-1002 10.5,-1002 10.5,-932 0.5,-932"/>
<polygon fill="none" stroke="black" points="0.5,-932 0.5,-1002 10.5,-1002 10.5,-932 0.5,-932"/>
<polygon fill="#ffffff" stroke="transparent" points="10.5,-932 10.5,-1002 353.5,-1002 353.5,-932 10.5,-932"/>
<polygon fill="none" stroke="black" points="10.5,-932 10.5,-1002 353.5,-1002 353.5,-932 10.5,-932"/>
<text text-anchor="start" x="142" y="-985.8" font-family="Times New Roman,serif" font-size="14.00">Issue_MPP_6</text>
<text text-anchor="start" x="15.5" y="-970.8" font-family="Times New Roman,serif" font-size="14.00">Infra_Provide candidate infrastructure options, with costing</text>
<text text-anchor="start" x="163" y="-955.8" font-family="Times New Roman,serif" font-size="14.00">To Do</text>
<text text-anchor="start" x="137" y="-940.8" font-family="Times New Roman,serif" font-size="14.00">Andrew_Yahoo</text>
<polygon fill="#ffffff" stroke="transparent" points="0.5,-907 0.5,-932 353.5,-932 353.5,-907 0.5,-907"/>
<polygon fill="none" stroke="black" points="0.5,-907 0.5,-932 353.5,-932 353.5,-907 0.5,-907"/>
<text text-anchor="start" x="50.5" y="-915.8" font-family="Times New Roman,serif" font-size="14.00">Cloud platform optimisation for performance</text>
<polygon fill="#66bbee" stroke="transparent" points="0.5,-882 0.5,-907 353.5,-907 353.5,-882 0.5,-882"/>
<polygon fill="none" stroke="black" points="0.5,-882 0.5,-907 353.5,-907 353.5,-882 0.5,-882"/>
<text text-anchor="start" x="146.5" y="-890.8" font-family="Times New Roman,serif" font-size="14.00">Contractor</text>></a></g>
<!-- Issue_MPP_5 -->
<g id="node17" class="node"><a href ="https://bluesheenah.atlassian.net/browse/MPP-5"  >
<title>Issue_MPP_5</title>
<polygon fill="#00cc00" stroke="transparent" points="389.5,-104 389.5,-174 399.5,-174 399.5,-104 389.5,-104"/>
<polygon fill="none" stroke="black" points="389.5,-104 389.5,-174 399.5,-174 399.5,-104 389.5,-104"/>
<polygon fill="#ff0000" stroke="transparent" points="399.5,-104 399.5,-174 692.5,-174 692.5,-104 399.5,-104"/>
<polygon fill="none" stroke="black" points="399.5,-104 399.5,-174 692.5,-174 692.5,-104 399.5,-104"/>
<text text-anchor="start" x="506" y="-157.8" font-family="Times New Roman,serif" font-size="14.00">Issue_MPP_5</text>
<text text-anchor="start" x="404.5" y="-142.8" font-family="Times New Roman,serif" font-size="14.00">Blocked_Infra_Assess current infrastructure usage</text>
<text text-anchor="start" x="522.5" y="-127.8" font-family="Times New Roman,serif" font-size="14.00">Blocked</text>
<text text-anchor="start" x="501" y="-112.8" font-family="Times New Roman,serif" font-size="14.00">Andrew_Yahoo</text>
<polygon fill="#ff0000" stroke="transparent" points="389.5,-79 389.5,-104 692.5,-104 692.5,-79 389.5,-79"/>
<polygon fill="none" stroke="black" points="389.5,-79 389.5,-104 692.5,-104 692.5,-79 389.5,-79"/>
<text text-anchor="start" x="414.5" y="-87.8" font-family="Times New Roman,serif" font-size="14.00">Cloud platform optimisation for performance</text>
<polygon fill="#66bbee" stroke="transparent" points="389.5,-54 389.5,-79 692.5,-79 692.5,-54 389.5,-54"/>
<polygon fill="none" stroke="black" points="389.5,-54 389.5,-79 692.5,-79 692.5,-54 389.5,-54"/>
<text text-anchor="start" x="510.5" y="-62.8" font-family="Times New Roman,serif" font-size="14.00">Contractor</text>></a></g>
</g>
</svg>
