<?xml version="1.0" encoding="UTF-8" standalone="no"?>
<!DOCTYPE svg PUBLIC "-//W3C//DTD SVG 1.1//EN"
 "http://www.w3.org/Graphics/SVG/1.1/DTD/svg11.dtd">
<!-- Generated by graphviz version 2.47.3 (20210619.1520)
 -->
<!-- Title: html Pages: 1 -->
<svg width="1224pt" height="1269pt"
 viewBox="0.00 0.00 1224.00 1268.50" xmlns="http://www.w3.org/2000/svg" xmlns:xlink="http://www.w3.org/1999/xlink">
<g id="graph0" class="graph" transform="scale(1 1) rotate(0) translate(4 1264.5)">
<title>html</title>
<polygon fill="white" stroke="transparent" points="-4,4 -4,-1264.5 1220,-1264.5 1220,4 -4,4"/>
<!-- TODO -->
<g id="node1" class="node">
<title>TODO</title>
<text text-anchor="middle" x="178.5" y="-14.3" font-family="Times New Roman,serif" font-size="14.00">TODO</text>
</g>
<!-- BLOCKED -->
<g id="node2" class="node">
<title>BLOCKED</title>
<text text-anchor="middle" x="527.5" y="-14.3" font-family="Times New Roman,serif" font-size="14.00">BLOCKED</text>
</g>
<!-- TODO&#45;&gt;BLOCKED -->
<g id="edge1" class="edge">
<title>TODO&#45;&gt;BLOCKED</title>
<path fill="none" stroke="black" d="M206.73,-18C264.87,-18 401.89,-18 476.3,-18"/>
<polygon fill="black" stroke="black" points="476.37,-21.5 486.37,-18 476.37,-14.5 476.37,-21.5"/>
</g>
<!-- INPROGRESS -->
<g id="node3" class="node">
<title>INPROGRESS</title>
<text text-anchor="middle" x="829.5" y="-14.3" font-family="Times New Roman,serif" font-size="14.00">INPROGRESS</text>
</g>
<!-- BLOCKED&#45;&gt;INPROGRESS -->
<g id="edge2" class="edge">
<title>BLOCKED&#45;&gt;INPROGRESS</title>
<path fill="none" stroke="black" d="M568.65,-18C619.48,-18 707.58,-18 766.93,-18"/>
<polygon fill="black" stroke="black" points="767.3,-21.5 777.3,-18 767.3,-14.5 767.3,-21.5"/>
</g>
<!-- DONE -->
<g id="node4" class="node">
<title>DONE</title>
<text text-anchor="middle" x="1106.5" y="-14.3" font-family="Times New Roman,serif" font-size="14.00">DONE</text>
</g>
<!-- INPROGRESS&#45;&gt;DONE -->
<g id="edge3" class="edge">
<title>INPROGRESS&#45;&gt;DONE</title>
<path fill="none" stroke="black" d="M881.58,-18C935.88,-18 1020.41,-18 1068.58,-18"/>
<polygon fill="black" stroke="black" points="1068.86,-21.5 1078.86,-18 1068.86,-14.5 1068.86,-21.5"/>
</g>
<!-- Issue_MPP_16 -->
<g id="node5" class="node"><a href ="https://bluesheenah.atlassian.net/browse/MPP-16"  >
<title>Issue_MPP_16</title>
<polygon fill="#00cc00" stroke="transparent" points="19.5,-104 19.5,-189 29.5,-189 29.5,-104 19.5,-104"/>
<polygon fill="none" stroke="black" points="19.5,-104 19.5,-189 29.5,-189 29.5,-104 19.5,-104"/>
<polygon fill="#ffffff" stroke="transparent" points="29.5,-104 29.5,-189 337.5,-189 337.5,-104 29.5,-104"/>
<polygon fill="none" stroke="black" points="29.5,-104 29.5,-189 337.5,-189 337.5,-104 29.5,-104"/>
<text text-anchor="start" x="140" y="-172.8" font-family="Times New Roman,serif" font-size="14.00">Issue_MPP_16</text>
<text text-anchor="start" x="34.5" y="-157.8" font-family="Times New Roman,serif" font-size="14.00">API_ Port the API to operate on the new DB schema</text>
<text text-anchor="start" x="164.5" y="-142.8" font-family="Times New Roman,serif" font-size="14.00">To Do</text>
<text text-anchor="start" x="152.5" y="-127.8" font-family="Times New Roman,serif" font-size="14.00">05/11/2021</text>
<text text-anchor="start" x="141.5" y="-112.8" font-family="Times New Roman,serif" font-size="14.00">Andrew_Hiron</text>
<polygon fill="#ffffff" stroke="transparent" points="19.5,-79 19.5,-104 337.5,-104 337.5,-79 19.5,-79"/>
<polygon fill="none" stroke="black" points="19.5,-79 19.5,-104 337.5,-104 337.5,-79 19.5,-79"/>
<text text-anchor="start" x="98.5" y="-87.8" font-family="Times New Roman,serif" font-size="14.00">API optimisation and update</text>
<polygon fill="#00cc00" stroke="transparent" points="19.5,-54 19.5,-79 337.5,-79 337.5,-54 19.5,-54"/>
<polygon fill="none" stroke="black" points="19.5,-54 19.5,-79 337.5,-79 337.5,-54 19.5,-54"/>
<text text-anchor="start" x="142" y="-62.8" font-family="Times New Roman,serif" font-size="14.00">Orange Core</text>></a></g>
<!-- Issue_MPP_15 -->
<g id="node6" class="node"><a href ="https://bluesheenah.atlassian.net/browse/MPP-15"  >
<title>Issue_MPP_15</title>
<polygon fill="#00cc00" stroke="transparent" points="57.5,-257 57.5,-342 67.5,-342 67.5,-257 57.5,-257"/>
<polygon fill="none" stroke="black" points="57.5,-257 57.5,-342 67.5,-342 67.5,-257 57.5,-257"/>
<polygon fill="#ffffff" stroke="transparent" points="67.5,-257 67.5,-342 300.5,-342 300.5,-257 67.5,-257"/>
<polygon fill="none" stroke="black" points="67.5,-257 67.5,-342 300.5,-342 300.5,-257 67.5,-257"/>
<text text-anchor="start" x="140.5" y="-325.8" font-family="Times New Roman,serif" font-size="14.00">Issue_MPP_15</text>
<text text-anchor="start" x="72.5" y="-310.8" font-family="Times New Roman,serif" font-size="14.00">API_ Deprecate redundant API features</text>
<text text-anchor="start" x="165" y="-295.8" font-family="Times New Roman,serif" font-size="14.00">To Do</text>
<text text-anchor="start" x="153" y="-280.8" font-family="Times New Roman,serif" font-size="14.00">10/11/2021</text>
<text text-anchor="start" x="142" y="-265.8" font-family="Times New Roman,serif" font-size="14.00">Andrew_Hiron</text>
<polygon fill="#ffffff" stroke="transparent" points="57.5,-232 57.5,-257 300.5,-257 300.5,-232 57.5,-232"/>
<polygon fill="none" stroke="black" points="57.5,-232 57.5,-257 300.5,-257 300.5,-232 57.5,-232"/>
<text text-anchor="start" x="99" y="-240.8" font-family="Times New Roman,serif" font-size="14.00">API optimisation and update</text>
<polygon fill="#00cc00" stroke="transparent" points="57.5,-207 57.5,-232 300.5,-232 300.5,-207 57.5,-207"/>
<polygon fill="none" stroke="black" points="57.5,-207 57.5,-232 300.5,-232 300.5,-207 57.5,-207"/>
<text text-anchor="start" x="142.5" y="-215.8" font-family="Times New Roman,serif" font-size="14.00">Orange Core</text>></a></g>
<!-- Issue_MPP_14 -->
<g id="node7" class="node"><a href ="https://bluesheenah.atlassian.net/browse/MPP-14"  >
<title>Issue_MPP_14</title>
<polygon fill="#00cc00" stroke="transparent" points="714.5,-104 714.5,-189 724.5,-189 724.5,-104 714.5,-104"/>
<polygon fill="none" stroke="black" points="714.5,-104 714.5,-189 724.5,-189 724.5,-104 714.5,-104"/>
<polygon fill="#00cc00" stroke="transparent" points="724.5,-104 724.5,-189 944.5,-189 944.5,-104 724.5,-104"/>
<polygon fill="none" stroke="black" points="724.5,-104 724.5,-189 944.5,-189 944.5,-104 724.5,-104"/>
<text text-anchor="start" x="791" y="-172.8" font-family="Times New Roman,serif" font-size="14.00">Issue_MPP_14</text>
<text text-anchor="start" x="729.5" y="-157.8" font-family="Times New Roman,serif" font-size="14.00">API_ Identify redundant API features</text>
<text text-anchor="start" x="788.5" y="-142.8" font-family="Times New Roman,serif" font-size="14.00">IN PROGRESS</text>
<text text-anchor="start" x="803.5" y="-127.8" font-family="Times New Roman,serif" font-size="14.00">28/10/2021</text>
<text text-anchor="start" x="792.5" y="-112.8" font-family="Times New Roman,serif" font-size="14.00">Andrew_Hiron</text>
<polygon fill="#00cc00" stroke="transparent" points="714.5,-79 714.5,-104 944.5,-104 944.5,-79 714.5,-79"/>
<polygon fill="none" stroke="black" points="714.5,-79 714.5,-104 944.5,-104 944.5,-79 714.5,-79"/>
<text text-anchor="start" x="749.5" y="-87.8" font-family="Times New Roman,serif" font-size="14.00">API optimisation and update</text>
<polygon fill="#00cc00" stroke="transparent" points="714.5,-54 714.5,-79 944.5,-79 944.5,-54 714.5,-54"/>
<polygon fill="none" stroke="black" points="714.5,-54 714.5,-79 944.5,-79 944.5,-54 714.5,-54"/>
<text text-anchor="start" x="793" y="-62.8" font-family="Times New Roman,serif" font-size="14.00">Orange Core</text>></a></g>
<!-- Issue_MPP_13 -->
<g id="node8" class="node"><a href ="https://bluesheenah.atlassian.net/browse/MPP-13"  >
<title>Issue_MPP_13</title>
<polygon fill="#00cc00" stroke="transparent" points="997.5,-104 997.5,-189 1007.5,-189 1007.5,-104 997.5,-104"/>
<polygon fill="none" stroke="black" points="997.5,-104 997.5,-189 1007.5,-189 1007.5,-104 997.5,-104"/>
<polygon fill="#888888" stroke="transparent" points="1007.5,-104 1007.5,-189 1216.5,-189 1216.5,-104 1007.5,-104"/>
<polygon fill="none" stroke="black" points="1007.5,-104 1007.5,-189 1216.5,-189 1216.5,-104 1007.5,-104"/>
<text text-anchor="start" x="1068.5" y="-172.8" font-family="Times New Roman,serif" font-size="14.00">Issue_MPP_13</text>
<text text-anchor="start" x="1012.5" y="-157.8" font-family="Times New Roman,serif" font-size="14.00">UI_ Modernise the UI for Feature 2</text>
<text text-anchor="start" x="1092.5" y="-142.8" font-family="Times New Roman,serif" font-size="14.00">DONE</text>
<text text-anchor="start" x="1081" y="-127.8" font-family="Times New Roman,serif" font-size="14.00">10/10/2021</text>
<text text-anchor="start" x="1070" y="-112.8" font-family="Times New Roman,serif" font-size="14.00">Andrew_Hiron</text>
<polygon fill="#888888" stroke="transparent" points="997.5,-79 997.5,-104 1216.5,-104 1216.5,-79 997.5,-79"/>
<polygon fill="none" stroke="black" points="997.5,-79 997.5,-104 1216.5,-104 1216.5,-79 997.5,-79"/>
<text text-anchor="start" x="1058.5" y="-87.8" font-family="Times New Roman,serif" font-size="14.00">UI modernisation</text>
<polygon fill="#00cc00" stroke="transparent" points="997.5,-54 997.5,-79 1216.5,-79 1216.5,-54 997.5,-54"/>
<polygon fill="none" stroke="black" points="997.5,-54 997.5,-79 1216.5,-79 1216.5,-54 997.5,-54"/>
<text text-anchor="start" x="1070.5" y="-62.8" font-family="Times New Roman,serif" font-size="14.00">Orange Core</text>></a></g>
<!-- Issue_MPP_12 -->
<g id="node9" class="node"><a href ="https://bluesheenah.atlassian.net/browse/MPP-12"  >
<title>Issue_MPP_12</title>
<polygon fill="#00cc00" stroke="transparent" points="69.5,-410 69.5,-495 79.5,-495 79.5,-410 69.5,-410"/>
<polygon fill="none" stroke="black" points="69.5,-410 69.5,-495 79.5,-495 79.5,-410 69.5,-410"/>
<polygon fill="#ffffff" stroke="transparent" points="79.5,-410 79.5,-495 288.5,-495 288.5,-410 79.5,-410"/>
<polygon fill="none" stroke="black" points="79.5,-410 79.5,-495 288.5,-495 288.5,-410 79.5,-410"/>
<text text-anchor="start" x="140.5" y="-478.8" font-family="Times New Roman,serif" font-size="14.00">Issue_MPP_12</text>
<text text-anchor="start" x="84.5" y="-463.8" font-family="Times New Roman,serif" font-size="14.00">UI_ Modernise the UI for Feature 1</text>
<text text-anchor="start" x="165" y="-448.8" font-family="Times New Roman,serif" font-size="14.00">To Do</text>
<text text-anchor="start" x="153" y="-433.8" font-family="Times New Roman,serif" font-size="14.00">10/10/2021</text>
<text text-anchor="start" x="142" y="-418.8" font-family="Times New Roman,serif" font-size="14.00">Andrew_Hiron</text>
<polygon fill="#ffffff" stroke="transparent" points="69.5,-385 69.5,-410 288.5,-410 288.5,-385 69.5,-385"/>
<polygon fill="none" stroke="black" points="69.5,-385 69.5,-410 288.5,-410 288.5,-385 69.5,-385"/>
<text text-anchor="start" x="130.5" y="-393.8" font-family="Times New Roman,serif" font-size="14.00">UI modernisation</text>
<polygon fill="#00cc00" stroke="transparent" points="69.5,-360 69.5,-385 288.5,-385 288.5,-360 69.5,-360"/>
<polygon fill="none" stroke="black" points="69.5,-360 69.5,-385 288.5,-385 288.5,-360 69.5,-360"/>
<text text-anchor="start" x="142.5" y="-368.8" font-family="Times New Roman,serif" font-size="14.00">Orange Core</text>></a></g>
<!-- Issue_MPP_11 -->
<g id="node10" class="node"><a href ="https://bluesheenah.atlassian.net/browse/MPP-11"  >
<title>Issue_MPP_11</title>
<polygon fill="#00cc00" stroke="transparent" points="85.5,-563 85.5,-648 95.5,-648 95.5,-563 85.5,-563"/>
<polygon fill="none" stroke="black" points="85.5,-563 85.5,-648 95.5,-648 95.5,-563 85.5,-563"/>
<polygon fill="#ffffff" stroke="transparent" points="95.5,-563 95.5,-648 271.5,-648 271.5,-563 95.5,-563"/>
<polygon fill="none" stroke="black" points="95.5,-563 95.5,-648 271.5,-648 271.5,-563 95.5,-563"/>
<text text-anchor="start" x="140" y="-631.8" font-family="Times New Roman,serif" font-size="14.00">Issue_MPP_11</text>
<text text-anchor="start" x="100.5" y="-616.8" font-family="Times New Roman,serif" font-size="14.00">DB_ Deploy new DB schema</text>
<text text-anchor="start" x="164.5" y="-601.8" font-family="Times New Roman,serif" font-size="14.00">To Do</text>
<text text-anchor="start" x="152.5" y="-586.8" font-family="Times New Roman,serif" font-size="14.00">10/12/2021</text>
<text text-anchor="start" x="141.5" y="-571.8" font-family="Times New Roman,serif" font-size="14.00">Andrew_Hiron</text>
<polygon fill="#ffffff" stroke="transparent" points="85.5,-538 85.5,-563 271.5,-563 271.5,-538 85.5,-538"/>
<polygon fill="none" stroke="black" points="85.5,-538 85.5,-563 271.5,-563 271.5,-538 85.5,-538"/>
<text text-anchor="start" x="101.5" y="-546.8" font-family="Times New Roman,serif" font-size="14.00">Database Schema re&#45;design</text>
<polygon fill="#00cc00" stroke="transparent" points="85.5,-513 85.5,-538 271.5,-538 271.5,-513 85.5,-513"/>
<polygon fill="none" stroke="black" points="85.5,-513 85.5,-538 271.5,-538 271.5,-513 85.5,-513"/>
<text text-anchor="start" x="142" y="-521.8" font-family="Times New Roman,serif" font-size="14.00">Orange Core</text>></a></g>
<!-- Issue_MPP_10 -->
<g id="node11" class="node"><a href ="https://bluesheenah.atlassian.net/browse/MPP-10"  >
<title>Issue_MPP_10</title>
<polygon fill="#00cc00" stroke="transparent" points="1.5,-716 1.5,-801 11.5,-801 11.5,-716 1.5,-716"/>
<polygon fill="none" stroke="black" points="1.5,-716 1.5,-801 11.5,-801 11.5,-716 1.5,-716"/>
<polygon fill="#ffffff" stroke="transparent" points="11.5,-716 11.5,-801 355.5,-801 355.5,-716 11.5,-716"/>
<polygon fill="none" stroke="black" points="11.5,-716 11.5,-801 355.5,-801 355.5,-716 11.5,-716"/>
<text text-anchor="start" x="140" y="-784.8" font-family="Times New Roman,serif" font-size="14.00">Issue_MPP_10</text>
<text text-anchor="start" x="16.5" y="-769.8" font-family="Times New Roman,serif" font-size="14.00">DB_ Re&#45;design DB Schema for efficiency and performance</text>
<text text-anchor="start" x="164.5" y="-754.8" font-family="Times New Roman,serif" font-size="14.00">To Do</text>
<text text-anchor="start" x="152.5" y="-739.8" font-family="Times New Roman,serif" font-size="14.00">20/12/2021</text>
<text text-anchor="start" x="136.5" y="-724.8" font-family="Times New Roman,serif" font-size="14.00">Andrew_Google</text>
<polygon fill="#ffffff" stroke="transparent" points="1.5,-691 1.5,-716 355.5,-716 355.5,-691 1.5,-691"/>
<polygon fill="none" stroke="black" points="1.5,-691 1.5,-716 355.5,-716 355.5,-691 1.5,-691"/>
<text text-anchor="start" x="101.5" y="-699.8" font-family="Times New Roman,serif" font-size="14.00">Database Schema re&#45;design</text>
<polygon fill="#ff0000" stroke="transparent" points="1.5,-666 1.5,-691 355.5,-691 355.5,-666 1.5,-666"/>
<polygon fill="none" stroke="black" points="1.5,-666 1.5,-691 355.5,-691 355.5,-666 1.5,-666"/>
<text text-anchor="start" x="148" y="-674.8" font-family="Times New Roman,serif" font-size="14.00">Contractor</text>></a></g>
<!-- Issue_MPP_9 -->
<g id="node12" class="node"><a href ="https://bluesheenah.atlassian.net/browse/MPP-9"  >
<title>Issue_MPP_9</title>
<polygon fill="#00cc00" stroke="transparent" points="393.5,-104 393.5,-189 403.5,-189 403.5,-104 393.5,-104"/>
<polygon fill="none" stroke="black" points="393.5,-104 393.5,-189 403.5,-189 403.5,-104 393.5,-104"/>
<polygon fill="#ff0000" stroke="transparent" points="403.5,-104 403.5,-189 662.5,-189 662.5,-104 403.5,-104"/>
<polygon fill="none" stroke="black" points="403.5,-104 403.5,-189 662.5,-189 662.5,-104 403.5,-104"/>
<text text-anchor="start" x="493" y="-172.8" font-family="Times New Roman,serif" font-size="14.00">Issue_MPP_9</text>
<text text-anchor="start" x="408.5" y="-157.8" font-family="Times New Roman,serif" font-size="14.00">Blocked_DB_ Remove redundant DB tables</text>
<text text-anchor="start" x="509.5" y="-142.8" font-family="Times New Roman,serif" font-size="14.00">Blocked</text>
<text text-anchor="start" x="502" y="-127.8" font-family="Times New Roman,serif" font-size="14.00">10/11/2021</text>
<text text-anchor="start" x="486" y="-112.8" font-family="Times New Roman,serif" font-size="14.00">Andrew_Google</text>
<polygon fill="#ff0000" stroke="transparent" points="393.5,-79 393.5,-104 662.5,-104 662.5,-79 393.5,-79"/>
<polygon fill="none" stroke="black" points="393.5,-79 393.5,-104 662.5,-104 662.5,-79 393.5,-79"/>
<text text-anchor="start" x="451" y="-87.8" font-family="Times New Roman,serif" font-size="14.00">Database Schema re&#45;design</text>
<polygon fill="#ff0000" stroke="transparent" points="393.5,-54 393.5,-79 662.5,-79 662.5,-54 393.5,-54"/>
<polygon fill="none" stroke="black" points="393.5,-54 393.5,-79 662.5,-79 662.5,-54 393.5,-54"/>
<text text-anchor="start" x="497.5" y="-62.8" font-family="Times New Roman,serif" font-size="14.00">Contractor</text>></a></g>
<!-- Issue_MPP_8 -->
<g id="node13" class="node"><a href ="https://bluesheenah.atlassian.net/browse/MPP-8"  >
<title>Issue_MPP_8</title>
<polygon fill="#00cc00" stroke="transparent" points="83.5,-869 83.5,-954 93.5,-954 93.5,-869 83.5,-869"/>
<polygon fill="none" stroke="black" points="83.5,-869 83.5,-954 93.5,-954 93.5,-869 83.5,-869"/>
<polygon fill="#ffffff" stroke="transparent" points="93.5,-869 93.5,-954 274.5,-954 274.5,-869 93.5,-869"/>
<polygon fill="none" stroke="black" points="93.5,-869 93.5,-954 274.5,-954 274.5,-869 93.5,-869"/>
<text text-anchor="start" x="144" y="-937.8" font-family="Times New Roman,serif" font-size="14.00">Issue_MPP_8</text>
<text text-anchor="start" x="98.5" y="-922.8" font-family="Times New Roman,serif" font-size="14.00">DB_ Assess current DB usage</text>
<text text-anchor="start" x="165" y="-907.8" font-family="Times New Roman,serif" font-size="14.00">To Do</text>
<text text-anchor="start" x="153" y="-892.8" font-family="Times New Roman,serif" font-size="14.00">24/12/2021</text>
<text text-anchor="start" x="137" y="-877.8" font-family="Times New Roman,serif" font-size="14.00">Andrew_Google</text>
<polygon fill="#ffffff" stroke="transparent" points="83.5,-844 83.5,-869 274.5,-869 274.5,-844 83.5,-844"/>
<polygon fill="none" stroke="black" points="83.5,-844 83.5,-869 274.5,-869 274.5,-844 83.5,-844"/>
<text text-anchor="start" x="102" y="-852.8" font-family="Times New Roman,serif" font-size="14.00">Database Schema re&#45;design</text>
<polygon fill="#ff0000" stroke="transparent" points="83.5,-819 83.5,-844 274.5,-844 274.5,-819 83.5,-819"/>
<polygon fill="none" stroke="black" points="83.5,-819 83.5,-844 274.5,-844 274.5,-819 83.5,-819"/>
<text text-anchor="start" x="148.5" y="-827.8" font-family="Times New Roman,serif" font-size="14.00">Contractor</text>></a></g>
<!-- Issue_MPP_7 -->
<g id="node14" class="node"><a href ="https://bluesheenah.atlassian.net/browse/MPP-7"  >
<title>Issue_MPP_7</title>
<polygon fill="#ff0000" stroke="transparent" points="698.5,-257 698.5,-342 754.5,-342 754.5,-257 698.5,-257"/>
<polygon fill="none" stroke="black" points="698.5,-257 698.5,-342 754.5,-342 754.5,-257 698.5,-257"/>
<polygon fill="#00cc00" stroke="transparent" points="754.5,-257 754.5,-342 961.5,-342 961.5,-257 754.5,-257"/>
<polygon fill="none" stroke="black" points="754.5,-257 754.5,-342 961.5,-342 961.5,-257 754.5,-257"/>
<text text-anchor="start" x="818" y="-325.8" font-family="Times New Roman,serif" font-size="14.00">Issue_MPP_7</text>
<text text-anchor="start" x="782.5" y="-310.8" font-family="Times New Roman,serif" font-size="14.00">Bug_Infra_ Implement IaC</text>
<text text-anchor="start" x="812" y="-295.8" font-family="Times New Roman,serif" font-size="14.00">IN PROGRESS</text>
<text text-anchor="start" x="827" y="-280.8" font-family="Times New Roman,serif" font-size="14.00">01/12/2021</text>
<text text-anchor="start" x="813" y="-265.8" font-family="Times New Roman,serif" font-size="14.00">Andrew_Yahoo</text>
<polygon fill="#00cc00" stroke="transparent" points="698.5,-232 698.5,-257 961.5,-257 961.5,-232 698.5,-232"/>
<polygon fill="none" stroke="black" points="698.5,-232 698.5,-257 961.5,-257 961.5,-232 698.5,-232"/>
<text text-anchor="start" x="703.5" y="-240.8" font-family="Times New Roman,serif" font-size="14.00">Cloud platform optimisation for performance</text>
<polygon fill="#00cc00" stroke="transparent" points="698.5,-207 698.5,-232 961.5,-232 961.5,-207 698.5,-207"/>
<polygon fill="none" stroke="black" points="698.5,-207 698.5,-232 961.5,-232 961.5,-207 698.5,-207"/>
<text text-anchor="start" x="793.5" y="-215.8" font-family="Times New Roman,serif" font-size="14.00">Orange Core</text>></a></g>
<!-- Issue_MPP_6 -->
<g id="node15" class="node"><a href ="https://bluesheenah.atlassian.net/browse/MPP-6"  >
<title>Issue_MPP_6</title>
<polygon fill="#00cc00" stroke="transparent" points="0.5,-1022 0.5,-1107 10.5,-1107 10.5,-1022 0.5,-1022"/>
<polygon fill="none" stroke="black" points="0.5,-1022 0.5,-1107 10.5,-1107 10.5,-1022 0.5,-1022"/>
<polygon fill="#ffffff" stroke="transparent" points="10.5,-1022 10.5,-1107 357.5,-1107 357.5,-1022 10.5,-1022"/>
<polygon fill="none" stroke="black" points="10.5,-1022 10.5,-1107 357.5,-1107 357.5,-1022 10.5,-1022"/>
<text text-anchor="start" x="144" y="-1090.8" font-family="Times New Roman,serif" font-size="14.00">Issue_MPP_6</text>
<text text-anchor="start" x="15.5" y="-1075.8" font-family="Times New Roman,serif" font-size="14.00">Infra_ Provide candidate infrastructure options, with costing</text>
<text text-anchor="start" x="165" y="-1060.8" font-family="Times New Roman,serif" font-size="14.00">To Do</text>
<text text-anchor="start" x="153" y="-1045.8" font-family="Times New Roman,serif" font-size="14.00">06/12/2021</text>
<text text-anchor="start" x="139" y="-1030.8" font-family="Times New Roman,serif" font-size="14.00">Andrew_Yahoo</text>
<polygon fill="#ffffff" stroke="transparent" points="0.5,-997 0.5,-1022 357.5,-1022 357.5,-997 0.5,-997"/>
<polygon fill="none" stroke="black" points="0.5,-997 0.5,-1022 357.5,-1022 357.5,-997 0.5,-997"/>
<text text-anchor="start" x="52.5" y="-1005.8" font-family="Times New Roman,serif" font-size="14.00">Cloud platform optimisation for performance</text>
<polygon fill="#00cc00" stroke="transparent" points="0.5,-972 0.5,-997 357.5,-997 357.5,-972 0.5,-972"/>
<polygon fill="none" stroke="black" points="0.5,-972 0.5,-997 357.5,-997 357.5,-972 0.5,-972"/>
<text text-anchor="start" x="142.5" y="-980.8" font-family="Times New Roman,serif" font-size="14.00">Orange Core</text>></a></g>
<!-- Issue_MPP_5 -->
<g id="node16" class="node"><a href ="https://bluesheenah.atlassian.net/browse/MPP-5"  >
<title>Issue_MPP_5</title>
<polygon fill="#00cc00" stroke="transparent" points="47.5,-1175 47.5,-1260 64.5,-1260 64.5,-1175 47.5,-1175"/>
<polygon fill="none" stroke="black" points="47.5,-1175 47.5,-1260 64.5,-1260 64.5,-1175 47.5,-1175"/>
<polygon fill="#ffffff" stroke="transparent" points="64.5,-1175 64.5,-1260 310.5,-1260 310.5,-1175 64.5,-1175"/>
<polygon fill="none" stroke="black" points="64.5,-1175 64.5,-1260 310.5,-1260 310.5,-1175 64.5,-1175"/>
<text text-anchor="start" x="147.5" y="-1243.8" font-family="Times New Roman,serif" font-size="14.00">Issue_MPP_5</text>
<text text-anchor="start" x="73" y="-1228.8" font-family="Times New Roman,serif" font-size="14.00">Infra_Assess current infrastructure usage</text>
<text text-anchor="start" x="168.5" y="-1213.8" font-family="Times New Roman,serif" font-size="14.00">To Do</text>
<text text-anchor="start" x="156.5" y="-1198.8" font-family="Times New Roman,serif" font-size="14.00">01/01/2021</text>
<text text-anchor="start" x="142.5" y="-1183.8" font-family="Times New Roman,serif" font-size="14.00">Andrew_Yahoo</text>
<polygon fill="#ffffff" stroke="transparent" points="47.5,-1150 47.5,-1175 310.5,-1175 310.5,-1150 47.5,-1150"/>
<polygon fill="none" stroke="black" points="47.5,-1150 47.5,-1175 310.5,-1175 310.5,-1150 47.5,-1150"/>
<text text-anchor="start" x="52.5" y="-1158.8" font-family="Times New Roman,serif" font-size="14.00">Cloud platform optimisation for performance</text>
<polygon fill="#00cc00" stroke="transparent" points="47.5,-1125 47.5,-1150 310.5,-1150 310.5,-1125 47.5,-1125"/>
<polygon fill="none" stroke="black" points="47.5,-1125 47.5,-1150 310.5,-1150 310.5,-1125 47.5,-1125"/>
<text text-anchor="start" x="142.5" y="-1133.8" font-family="Times New Roman,serif" font-size="14.00">Orange Core</text>></a></g>
</g>
</svg>
