<?xml version="1.0" encoding="UTF-8" standalone="no"?>
<!DOCTYPE svg PUBLIC "-//W3C//DTD SVG 1.1//EN"
 "http://www.w3.org/Graphics/SVG/1.1/DTD/svg11.dtd">
<!-- Generated by graphviz version 2.47.3 (20210619.1520)
 -->
<!-- Title: html Pages: 1 -->
<svg width="1661pt" height="118pt"
 viewBox="0.00 0.00 1661.00 117.50" xmlns="http://www.w3.org/2000/svg" xmlns:xlink="http://www.w3.org/1999/xlink">
<g id="graph0" class="graph" transform="scale(1 1) rotate(0) translate(4 113.5)">
<title>html</title>
<polygon fill="white" stroke="transparent" points="-4,4 -4,-113.5 1657,-113.5 1657,4 -4,4"/>
<!-- Unplanned -->
<g id="node1" class="node">
<title>Unplanned</title>
<text text-anchor="middle" x="38.5" y="-14.3" font-family="Times New Roman,serif" font-size="14.00">Unplanned</text>
</g>
<!-- 2110 -->
<g id="node2" class="node">
<title>2110</title>
<text text-anchor="middle" x="140" y="-14.3" font-family="Times New Roman,serif" font-size="14.00">2110</text>
</g>
<!-- Unplanned&#45;&gt;2110 -->
<g id="edge1" class="edge">
<title>Unplanned&#45;&gt;2110</title>
<path fill="none" stroke="black" d="M77.12,-18C85.47,-18 94.32,-18 102.63,-18"/>
<polygon fill="black" stroke="black" points="102.78,-21.5 112.78,-18 102.78,-14.5 102.78,-21.5"/>
</g>
<!-- 2111 -->
<g id="node3" class="node">
<title>2111</title>
<text text-anchor="middle" x="285" y="-14.3" font-family="Times New Roman,serif" font-size="14.00">2111</text>
</g>
<!-- 2110&#45;&gt;2111 -->
<g id="edge2" class="edge">
<title>2110&#45;&gt;2111</title>
<path fill="none" stroke="black" d="M167.23,-18C189.8,-18 222.61,-18 247.71,-18"/>
<polygon fill="black" stroke="black" points="247.94,-21.5 257.94,-18 247.94,-14.5 247.94,-21.5"/>
</g>
<!-- 2112 -->
<g id="node4" class="node">
<title>2112</title>
<text text-anchor="middle" x="534.5" y="-14.3" font-family="Times New Roman,serif" font-size="14.00">2112</text>
</g>
<!-- 2111&#45;&gt;2112 -->
<g id="edge3" class="edge">
<title>2111&#45;&gt;2112</title>
<path fill="none" stroke="black" d="M312.02,-18C356.4,-18 446.81,-18 497.32,-18"/>
<polygon fill="black" stroke="black" points="497.46,-21.5 507.46,-18 497.46,-14.5 497.46,-21.5"/>
</g>
<!-- 2201 -->
<g id="node5" class="node">
<title>2201</title>
<text text-anchor="middle" x="729" y="-14.3" font-family="Times New Roman,serif" font-size="14.00">2201</text>
</g>
<!-- 2112&#45;&gt;2201 -->
<g id="edge4" class="edge">
<title>2112&#45;&gt;2201</title>
<path fill="none" stroke="black" d="M561.86,-18C595.56,-18 654.05,-18 691.87,-18"/>
<polygon fill="black" stroke="black" points="691.96,-21.5 701.96,-18 691.96,-14.5 691.96,-21.5"/>
</g>
<!-- 2202 -->
<g id="node6" class="node">
<title>2202</title>
<text text-anchor="middle" x="877" y="-14.3" font-family="Times New Roman,serif" font-size="14.00">2202</text>
</g>
<!-- 2201&#45;&gt;2202 -->
<g id="edge5" class="edge">
<title>2201&#45;&gt;2202</title>
<path fill="none" stroke="black" d="M756.1,-18C779.31,-18 813.5,-18 839.43,-18"/>
<polygon fill="black" stroke="black" points="839.63,-21.5 849.63,-18 839.63,-14.5 839.63,-21.5"/>
</g>
<!-- 2203 -->
<g id="node7" class="node">
<title>2203</title>
<text text-anchor="middle" x="1055.5" y="-14.3" font-family="Times New Roman,serif" font-size="14.00">2203</text>
</g>
<!-- 2202&#45;&gt;2203 -->
<g id="edge6" class="edge">
<title>2202&#45;&gt;2203</title>
<path fill="none" stroke="black" d="M904.04,-18C934.15,-18 983.93,-18 1017.91,-18"/>
<polygon fill="black" stroke="black" points="1018.35,-21.5 1028.35,-18 1018.35,-14.5 1018.35,-21.5"/>
</g>
<!-- 2204 -->
<g id="node8" class="node">
<title>2204</title>
<text text-anchor="middle" x="1176" y="-14.3" font-family="Times New Roman,serif" font-size="14.00">2204</text>
</g>
<!-- 2203&#45;&gt;2204 -->
<g id="edge7" class="edge">
<title>2203&#45;&gt;2204</title>
<path fill="none" stroke="black" d="M1082.51,-18C1098.91,-18 1120.34,-18 1138.44,-18"/>
<polygon fill="black" stroke="black" points="1138.65,-21.5 1148.65,-18 1138.65,-14.5 1138.65,-21.5"/>
</g>
<!-- 2205 -->
<g id="node9" class="node">
<title>2205</title>
<text text-anchor="middle" x="1266" y="-14.3" font-family="Times New Roman,serif" font-size="14.00">2205</text>
</g>
<!-- 2204&#45;&gt;2205 -->
<g id="edge8" class="edge">
<title>2204&#45;&gt;2205</title>
<path fill="none" stroke="black" d="M1203.4,-18C1211.39,-18 1220.31,-18 1228.82,-18"/>
<polygon fill="black" stroke="black" points="1228.92,-21.5 1238.92,-18 1228.92,-14.5 1228.92,-21.5"/>
</g>
<!-- 2206 -->
<g id="node10" class="node">
<title>2206</title>
<text text-anchor="middle" x="1356" y="-14.3" font-family="Times New Roman,serif" font-size="14.00">2206</text>
</g>
<!-- 2205&#45;&gt;2206 -->
<g id="edge9" class="edge">
<title>2205&#45;&gt;2206</title>
<path fill="none" stroke="black" d="M1293.4,-18C1301.39,-18 1310.31,-18 1318.82,-18"/>
<polygon fill="black" stroke="black" points="1318.92,-21.5 1328.92,-18 1318.92,-14.5 1318.92,-21.5"/>
</g>
<!-- 2207 -->
<g id="node11" class="node">
<title>2207</title>
<text text-anchor="middle" x="1446" y="-14.3" font-family="Times New Roman,serif" font-size="14.00">2207</text>
</g>
<!-- 2206&#45;&gt;2207 -->
<g id="edge10" class="edge">
<title>2206&#45;&gt;2207</title>
<path fill="none" stroke="black" d="M1383.4,-18C1391.39,-18 1400.31,-18 1408.82,-18"/>
<polygon fill="black" stroke="black" points="1408.92,-21.5 1418.92,-18 1408.92,-14.5 1408.92,-21.5"/>
</g>
<!-- 2208 -->
<g id="node12" class="node">
<title>2208</title>
<text text-anchor="middle" x="1536" y="-14.3" font-family="Times New Roman,serif" font-size="14.00">2208</text>
</g>
<!-- 2207&#45;&gt;2208 -->
<g id="edge11" class="edge">
<title>2207&#45;&gt;2208</title>
<path fill="none" stroke="black" d="M1473.4,-18C1481.39,-18 1490.31,-18 1498.82,-18"/>
<polygon fill="black" stroke="black" points="1498.92,-21.5 1508.92,-18 1498.92,-14.5 1498.92,-21.5"/>
</g>
<!-- 2209 -->
<g id="node13" class="node">
<title>2209</title>
<text text-anchor="middle" x="1626" y="-14.3" font-family="Times New Roman,serif" font-size="14.00">2209</text>
</g>
<!-- 2208&#45;&gt;2209 -->
<g id="edge12" class="edge">
<title>2208&#45;&gt;2209</title>
<path fill="none" stroke="black" d="M1563.4,-18C1571.39,-18 1580.31,-18 1588.82,-18"/>
<polygon fill="black" stroke="black" points="1588.92,-21.5 1598.92,-18 1588.92,-14.5 1588.92,-21.5"/>
</g>
<!-- Milestone_MPP_4 -->
<g id="node14" class="node">
<title>Milestone_MPP_4</title>
<polygon fill="#00cc00" stroke="transparent" points="792,-54 792,-109 962,-109 962,-54 792,-54"/>
<polygon fill="none" stroke="black" points="792,-54 792,-109 962,-109 962,-54 792,-54"/>
<text text-anchor="start" x="824.5" y="-92.8" font-family="Times New Roman,serif" font-size="14.00">Milestone_MPP_4</text>
<text text-anchor="start" x="797" y="-77.8" font-family="Times New Roman,serif" font-size="14.00">API optimisation and update</text>
<text text-anchor="start" x="846" y="-62.8" font-family="Times New Roman,serif" font-size="14.00">04/02/2022</text>
</g>
<!-- Milestone_MPP_3 -->
<g id="node15" class="node">
<title>Milestone_MPP_3</title>
<polygon fill="#ffffff" stroke="transparent" points="998.5,-54 998.5,-109 1113.5,-109 1113.5,-54 998.5,-54"/>
<polygon fill="none" stroke="black" points="998.5,-54 998.5,-109 1113.5,-109 1113.5,-54 998.5,-54"/>
<text text-anchor="start" x="1003.5" y="-92.8" font-family="Times New Roman,serif" font-size="14.00">Milestone_MPP_3</text>
<text text-anchor="start" x="1007.5" y="-77.8" font-family="Times New Roman,serif" font-size="14.00">UI modernisation</text>
<text text-anchor="start" x="1025" y="-62.8" font-family="Times New Roman,serif" font-size="14.00">02/03/2022</text>
</g>
<!-- Milestone_MPP_2 -->
<g id="node16" class="node">
<title>Milestone_MPP_2</title>
<polygon fill="#888888" stroke="transparent" points="203,-54 203,-109 367,-109 367,-54 203,-54"/>
<polygon fill="none" stroke="black" points="203,-54 203,-109 367,-109 367,-54 203,-54"/>
<text text-anchor="start" x="232.5" y="-92.8" font-family="Times New Roman,serif" font-size="14.00">Milestone_MPP_2</text>
<text text-anchor="start" x="208" y="-77.8" font-family="Times New Roman,serif" font-size="14.00">Database Schema re&#45;design</text>
<text text-anchor="start" x="254" y="-62.8" font-family="Times New Roman,serif" font-size="14.00">28/11/2021</text>
</g>
<!-- Milestone_MPP_1 -->
<g id="node17" class="node">
<title>Milestone_MPP_1</title>
<polygon fill="#00cc00" stroke="transparent" points="403.5,-54 403.5,-109 666.5,-109 666.5,-54 403.5,-54"/>
<polygon fill="none" stroke="black" points="403.5,-54 403.5,-109 666.5,-109 666.5,-54 403.5,-54"/>
<text text-anchor="start" x="482.5" y="-92.8" font-family="Times New Roman,serif" font-size="14.00">Milestone_MPP_1</text>
<text text-anchor="start" x="408.5" y="-77.8" font-family="Times New Roman,serif" font-size="14.00">Cloud platform optimisation for performance</text>
<text text-anchor="start" x="504" y="-62.8" font-family="Times New Roman,serif" font-size="14.00">29/12/2021</text>
</g>
</g>
</svg>
