<?xml version="1.0" encoding="UTF-8" standalone="no"?>
<!DOCTYPE svg PUBLIC "-//W3C//DTD SVG 1.1//EN"
 "http://www.w3.org/Graphics/SVG/1.1/DTD/svg11.dtd">
<!-- Generated by graphviz version 2.47.3 (20210619.1520)
 -->
<!-- Title: html Pages: 1 -->
<svg width="1661pt" height="118pt"
 viewBox="0.00 0.00 1661.00 117.50" xmlns="http://www.w3.org/2000/svg" xmlns:xlink="http://www.w3.org/1999/xlink">
<g id="graph0" class="graph" transform="scale(1 1) rotate(0) translate(4 113.5)">
<title>html</title>
<polygon fill="white" stroke="transparent" points="-4,4 -4,-113.5 1657,-113.5 1657,4 -4,4"/>
<!-- Unplanned -->
<g id="node1" class="node">
<title>Unplanned</title>
<text text-anchor="middle" x="38.5" y="-14.3" font-family="Times New Roman,serif" font-size="14.00">Unplanned</text>
</g>
<!-- 2111 -->
<g id="node2" class="node">
<title>2111</title>
<text text-anchor="middle" x="195" y="-14.3" font-family="Times New Roman,serif" font-size="14.00">2111</text>
</g>
<!-- Unplanned&#45;&gt;2111 -->
<g id="edge1" class="edge">
<title>Unplanned&#45;&gt;2111</title>
<path fill="none" stroke="black" d="M77.29,-18C101.73,-18 133.36,-18 157.53,-18"/>
<polygon fill="black" stroke="black" points="157.72,-21.5 167.72,-18 157.72,-14.5 157.72,-21.5"/>
</g>
<!-- 2112 -->
<g id="node3" class="node">
<title>2112</title>
<text text-anchor="middle" x="444.5" y="-14.3" font-family="Times New Roman,serif" font-size="14.00">2112</text>
</g>
<!-- 2111&#45;&gt;2112 -->
<g id="edge2" class="edge">
<title>2111&#45;&gt;2112</title>
<path fill="none" stroke="black" d="M222.02,-18C266.4,-18 356.81,-18 407.32,-18"/>
<polygon fill="black" stroke="black" points="407.46,-21.5 417.46,-18 407.46,-14.5 407.46,-21.5"/>
</g>
<!-- 2201 -->
<g id="node4" class="node">
<title>2201</title>
<text text-anchor="middle" x="639" y="-14.3" font-family="Times New Roman,serif" font-size="14.00">2201</text>
</g>
<!-- 2112&#45;&gt;2201 -->
<g id="edge3" class="edge">
<title>2112&#45;&gt;2201</title>
<path fill="none" stroke="black" d="M471.86,-18C505.56,-18 564.05,-18 601.87,-18"/>
<polygon fill="black" stroke="black" points="601.96,-21.5 611.96,-18 601.96,-14.5 601.96,-21.5"/>
</g>
<!-- 2202 -->
<g id="node5" class="node">
<title>2202</title>
<text text-anchor="middle" x="787" y="-14.3" font-family="Times New Roman,serif" font-size="14.00">2202</text>
</g>
<!-- 2201&#45;&gt;2202 -->
<g id="edge4" class="edge">
<title>2201&#45;&gt;2202</title>
<path fill="none" stroke="black" d="M666.1,-18C689.31,-18 723.5,-18 749.43,-18"/>
<polygon fill="black" stroke="black" points="749.63,-21.5 759.63,-18 749.63,-14.5 749.63,-21.5"/>
</g>
<!-- 2203 -->
<g id="node6" class="node">
<title>2203</title>
<text text-anchor="middle" x="965.5" y="-14.3" font-family="Times New Roman,serif" font-size="14.00">2203</text>
</g>
<!-- 2202&#45;&gt;2203 -->
<g id="edge5" class="edge">
<title>2202&#45;&gt;2203</title>
<path fill="none" stroke="black" d="M814.04,-18C844.15,-18 893.93,-18 927.91,-18"/>
<polygon fill="black" stroke="black" points="928.35,-21.5 938.35,-18 928.35,-14.5 928.35,-21.5"/>
</g>
<!-- 2204 -->
<g id="node7" class="node">
<title>2204</title>
<text text-anchor="middle" x="1086" y="-14.3" font-family="Times New Roman,serif" font-size="14.00">2204</text>
</g>
<!-- 2203&#45;&gt;2204 -->
<g id="edge6" class="edge">
<title>2203&#45;&gt;2204</title>
<path fill="none" stroke="black" d="M992.51,-18C1008.91,-18 1030.34,-18 1048.44,-18"/>
<polygon fill="black" stroke="black" points="1048.65,-21.5 1058.65,-18 1048.65,-14.5 1048.65,-21.5"/>
</g>
<!-- 2205 -->
<g id="node8" class="node">
<title>2205</title>
<text text-anchor="middle" x="1176" y="-14.3" font-family="Times New Roman,serif" font-size="14.00">2205</text>
</g>
<!-- 2204&#45;&gt;2205 -->
<g id="edge7" class="edge">
<title>2204&#45;&gt;2205</title>
<path fill="none" stroke="black" d="M1113.4,-18C1121.39,-18 1130.31,-18 1138.82,-18"/>
<polygon fill="black" stroke="black" points="1138.92,-21.5 1148.92,-18 1138.92,-14.5 1138.92,-21.5"/>
</g>
<!-- 2206 -->
<g id="node9" class="node">
<title>2206</title>
<text text-anchor="middle" x="1266" y="-14.3" font-family="Times New Roman,serif" font-size="14.00">2206</text>
</g>
<!-- 2205&#45;&gt;2206 -->
<g id="edge8" class="edge">
<title>2205&#45;&gt;2206</title>
<path fill="none" stroke="black" d="M1203.4,-18C1211.39,-18 1220.31,-18 1228.82,-18"/>
<polygon fill="black" stroke="black" points="1228.92,-21.5 1238.92,-18 1228.92,-14.5 1228.92,-21.5"/>
</g>
<!-- 2207 -->
<g id="node10" class="node">
<title>2207</title>
<text text-anchor="middle" x="1356" y="-14.3" font-family="Times New Roman,serif" font-size="14.00">2207</text>
</g>
<!-- 2206&#45;&gt;2207 -->
<g id="edge9" class="edge">
<title>2206&#45;&gt;2207</title>
<path fill="none" stroke="black" d="M1293.4,-18C1301.39,-18 1310.31,-18 1318.82,-18"/>
<polygon fill="black" stroke="black" points="1318.92,-21.5 1328.92,-18 1318.92,-14.5 1318.92,-21.5"/>
</g>
<!-- 2208 -->
<g id="node11" class="node">
<title>2208</title>
<text text-anchor="middle" x="1446" y="-14.3" font-family="Times New Roman,serif" font-size="14.00">2208</text>
</g>
<!-- 2207&#45;&gt;2208 -->
<g id="edge10" class="edge">
<title>2207&#45;&gt;2208</title>
<path fill="none" stroke="black" d="M1383.4,-18C1391.39,-18 1400.31,-18 1408.82,-18"/>
<polygon fill="black" stroke="black" points="1408.92,-21.5 1418.92,-18 1408.92,-14.5 1408.92,-21.5"/>
</g>
<!-- 2209 -->
<g id="node12" class="node">
<title>2209</title>
<text text-anchor="middle" x="1536" y="-14.3" font-family="Times New Roman,serif" font-size="14.00">2209</text>
</g>
<!-- 2208&#45;&gt;2209 -->
<g id="edge11" class="edge">
<title>2208&#45;&gt;2209</title>
<path fill="none" stroke="black" d="M1473.4,-18C1481.39,-18 1490.31,-18 1498.82,-18"/>
<polygon fill="black" stroke="black" points="1498.92,-21.5 1508.92,-18 1498.92,-14.5 1498.92,-21.5"/>
</g>
<!-- 2210 -->
<g id="node13" class="node">
<title>2210</title>
<text text-anchor="middle" x="1626" y="-14.3" font-family="Times New Roman,serif" font-size="14.00">2210</text>
</g>
<!-- 2209&#45;&gt;2210 -->
<g id="edge12" class="edge">
<title>2209&#45;&gt;2210</title>
<path fill="none" stroke="black" d="M1563.4,-18C1571.39,-18 1580.31,-18 1588.82,-18"/>
<polygon fill="black" stroke="black" points="1588.92,-21.5 1598.92,-18 1588.92,-14.5 1588.92,-21.5"/>
</g>
<!-- Milestone_MPP_4 -->
<g id="node14" class="node"><a href ="https://bluesheenah.atlassian.net/browse/MPP-4"  >
<title>Milestone_MPP_4</title>
<polygon fill="#00cc00" stroke="transparent" points="702,-54 702,-109 872,-109 872,-54 702,-54"/>
<polygon fill="none" stroke="black" points="702,-54 702,-109 872,-109 872,-54 702,-54"/>
<text text-anchor="start" x="734.5" y="-92.8" font-family="Times New Roman,serif" font-size="14.00">Milestone_MPP_4</text>
<text text-anchor="start" x="707" y="-77.8" font-family="Times New Roman,serif" font-size="14.00">API optimisation and update</text>
<text text-anchor="start" x="756" y="-62.8" font-family="Times New Roman,serif" font-size="14.00">04/02/2022</text>></a></g>
<!-- Milestone_MPP_3 -->
<g id="node15" class="node"><a href ="https://bluesheenah.atlassian.net/browse/MPP-3"  >
<title>Milestone_MPP_3</title>
<polygon fill="#00cc00" stroke="transparent" points="908.5,-54 908.5,-109 1023.5,-109 1023.5,-54 908.5,-54"/>
<polygon fill="none" stroke="black" points="908.5,-54 908.5,-109 1023.5,-109 1023.5,-54 908.5,-54"/>
<text text-anchor="start" x="913.5" y="-92.8" font-family="Times New Roman,serif" font-size="14.00">Milestone_MPP_3</text>
<text text-anchor="start" x="917.5" y="-77.8" font-family="Times New Roman,serif" font-size="14.00">UI modernisation</text>
<text text-anchor="start" x="935" y="-62.8" font-family="Times New Roman,serif" font-size="14.00">02/03/2022</text>></a></g>
<!-- Milestone_MPP_2 -->
<g id="node16" class="node"><a href ="https://bluesheenah.atlassian.net/browse/MPP-2"  >
<title>Milestone_MPP_2</title>
<polygon fill="#00cc00" stroke="transparent" points="113,-54 113,-109 277,-109 277,-54 113,-54"/>
<polygon fill="none" stroke="black" points="113,-54 113,-109 277,-109 277,-54 113,-54"/>
<text text-anchor="start" x="142.5" y="-92.8" font-family="Times New Roman,serif" font-size="14.00">Milestone_MPP_2</text>
<text text-anchor="start" x="118" y="-77.8" font-family="Times New Roman,serif" font-size="14.00">Database Schema re&#45;design</text>
<text text-anchor="start" x="164" y="-62.8" font-family="Times New Roman,serif" font-size="14.00">28/11/2021</text>></a></g>
<!-- Milestone_MPP_1 -->
<g id="node17" class="node"><a href ="https://bluesheenah.atlassian.net/browse/MPP-1"  >
<title>Milestone_MPP_1</title>
<polygon fill="#ffffff" stroke="transparent" points="313.5,-54 313.5,-109 576.5,-109 576.5,-54 313.5,-54"/>
<polygon fill="none" stroke="black" points="313.5,-54 313.5,-109 576.5,-109 576.5,-54 313.5,-54"/>
<text text-anchor="start" x="392.5" y="-92.8" font-family="Times New Roman,serif" font-size="14.00">Milestone_MPP_1</text>
<text text-anchor="start" x="318.5" y="-77.8" font-family="Times New Roman,serif" font-size="14.00">Cloud platform optimisation for performance</text>
<text text-anchor="start" x="414" y="-62.8" font-family="Times New Roman,serif" font-size="14.00">29/12/2021</text>></a></g>
</g>
</svg>
