<?xml version="1.0" encoding="UTF-8" standalone="no"?>
<!DOCTYPE svg PUBLIC "-//W3C//DTD SVG 1.1//EN"
 "http://www.w3.org/Graphics/SVG/1.1/DTD/svg11.dtd">
<!-- Generated by graphviz version 2.47.3 (20210619.1520)
 -->
<!-- Title: html Pages: 1 -->
<svg width="1371pt" height="596pt"
 viewBox="0.00 0.00 1371.00 596.00" xmlns="http://www.w3.org/2000/svg" xmlns:xlink="http://www.w3.org/1999/xlink">
<g id="graph0" class="graph" transform="scale(1 1) rotate(0) translate(4 592)">
<title>html</title>
<polygon fill="white" stroke="transparent" points="-4,4 -4,-592 1367,-592 1367,4 -4,4"/>
<!-- Andrew_Hiron_M -->
<g id="node1" class="node">
<title>Andrew_Hiron_M</title>
<text text-anchor="middle" x="168" y="-14.3" font-family="Times New Roman,serif" font-size="14.00">Andrew_Hiron_M</text>
</g>
<!-- Kapil_Chadha_GM -->
<g id="node2" class="node">
<title>Kapil_Chadha_GM</title>
<text text-anchor="middle" x="547" y="-14.3" font-family="Times New Roman,serif" font-size="14.00">Kapil_Chadha_GM</text>
</g>
<!-- Andrew_Hiron_M&#45;&gt;Kapil_Chadha_GM -->
<g id="edge1" class="edge">
<title>Andrew_Hiron_M&#45;&gt;Kapil_Chadha_GM</title>
<path fill="none" stroke="black" d="M227.91,-18C294.23,-18 402.03,-18 473.48,-18"/>
<polygon fill="black" stroke="black" points="473.75,-21.5 483.75,-18 473.75,-14.5 473.75,-21.5"/>
</g>
<!-- Theo_Macris_SA -->
<g id="node3" class="node">
<title>Theo_Macris_SA</title>
<text text-anchor="middle" x="866" y="-14.3" font-family="Times New Roman,serif" font-size="14.00">Theo_Macris_SA</text>
</g>
<!-- Kapil_Chadha_GM&#45;&gt;Theo_Macris_SA -->
<g id="edge2" class="edge">
<title>Kapil_Chadha_GM&#45;&gt;Theo_Macris_SA</title>
<path fill="none" stroke="black" d="M610.25,-18C664.14,-18 741.93,-18 797.35,-18"/>
<polygon fill="black" stroke="black" points="797.43,-21.5 807.43,-18 797.43,-14.5 797.43,-21.5"/>
</g>
<!-- Andrew_Yahoo_Contractor -->
<g id="node4" class="node">
<title>Andrew_Yahoo_Contractor</title>
<text text-anchor="middle" x="1186.5" y="-14.3" font-family="Times New Roman,serif" font-size="14.00">Andrew_Yahoo_Contractor</text>
</g>
<!-- Theo_Macris_SA&#45;&gt;Andrew_Yahoo_Contractor -->
<g id="edge3" class="edge">
<title>Theo_Macris_SA&#45;&gt;Andrew_Yahoo_Contractor</title>
<path fill="none" stroke="black" d="M924.68,-18C970.49,-18 1035.54,-18 1089.21,-18"/>
<polygon fill="black" stroke="black" points="1089.44,-21.5 1099.44,-18 1089.44,-14.5 1089.44,-21.5"/>
</g>
<!-- Issue_MPP_17 -->
<g id="node5" class="node"><a href ="https://bluesheenah.atlassian.net/browse/MPP-17"  >
<title>Issue_MPP_17</title>
<polygon fill="#ff0000" stroke="transparent" points="0,-89 0,-159 10,-159 10,-89 0,-89"/>
<polygon fill="none" stroke="black" points="0,-89 0,-159 10,-159 10,-89 0,-89"/>
<polygon fill="#888888" stroke="transparent" points="10,-89 10,-159 336,-159 336,-89 10,-89"/>
<polygon fill="none" stroke="black" points="10,-89 10,-159 336,-159 336,-89 10,-89"/>
<text text-anchor="start" x="129.5" y="-142.8" font-family="Times New Roman,serif" font-size="14.00">Issue_MPP_17</text>
<text text-anchor="start" x="15" y="-127.8" font-family="Times New Roman,serif" font-size="14.00">Bug_API_Exception Logging lacks informative message</text>
<text text-anchor="start" x="157.5" y="-112.8" font-family="Times New Roman,serif" font-size="14.00">Done</text>
<text text-anchor="start" x="131" y="-97.8" font-family="Times New Roman,serif" font-size="14.00">Andrew_Hiron</text>
<polygon fill="#888888" stroke="transparent" points="0,-79 0,-89 336,-89 336,-79 0,-79"/>
<polygon fill="none" stroke="black" points="0,-79 0,-89 336,-89 336,-79 0,-79"/>
<polygon fill="#ff8000" stroke="transparent" points="0,-54 0,-79 336,-79 336,-54 0,-54"/>
<polygon fill="none" stroke="black" points="0,-54 0,-79 336,-79 336,-54 0,-54"/>
<text text-anchor="start" x="131.5" y="-62.8" font-family="Times New Roman,serif" font-size="14.00">Orange Core</text>></a></g>
<!-- Issue_MPP_16 -->
<g id="node6" class="node"><a href ="https://bluesheenah.atlassian.net/browse/MPP-16"  >
<title>Issue_MPP_16</title>
<polygon fill="#00cc00" stroke="transparent" points="11,-228 11,-298 21,-298 21,-228 11,-228"/>
<polygon fill="none" stroke="black" points="11,-228 11,-298 21,-298 21,-228 11,-228"/>
<polygon fill="#ffffff" stroke="transparent" points="21,-228 21,-298 325,-298 325,-228 21,-228"/>
<polygon fill="none" stroke="black" points="21,-228 21,-298 325,-298 325,-228 21,-228"/>
<text text-anchor="start" x="129.5" y="-281.8" font-family="Times New Roman,serif" font-size="14.00">Issue_MPP_16</text>
<text text-anchor="start" x="26" y="-266.8" font-family="Times New Roman,serif" font-size="14.00">API_Port the API to operate on the new DB schema</text>
<text text-anchor="start" x="154" y="-251.8" font-family="Times New Roman,serif" font-size="14.00">To Do</text>
<text text-anchor="start" x="131" y="-236.8" font-family="Times New Roman,serif" font-size="14.00">Andrew_Hiron</text>
<polygon fill="#ffffff" stroke="transparent" points="11,-203 11,-228 325,-228 325,-203 11,-203"/>
<polygon fill="none" stroke="black" points="11,-203 11,-228 325,-228 325,-203 11,-203"/>
<text text-anchor="start" x="88" y="-211.8" font-family="Times New Roman,serif" font-size="14.00">API optimisation and update</text>
<polygon fill="#ff8000" stroke="transparent" points="11,-178 11,-203 325,-203 325,-178 11,-178"/>
<polygon fill="none" stroke="black" points="11,-178 11,-203 325,-203 325,-178 11,-178"/>
<text text-anchor="start" x="131.5" y="-186.8" font-family="Times New Roman,serif" font-size="14.00">Orange Core</text>></a></g>
<!-- Issue_MPP_15 -->
<g id="node7" class="node"><a href ="https://bluesheenah.atlassian.net/browse/MPP-15"  >
<title>Issue_MPP_15</title>
<polygon fill="#00cc00" stroke="transparent" points="48,-366 48,-436 58,-436 58,-366 48,-366"/>
<polygon fill="none" stroke="black" points="48,-366 48,-436 58,-436 58,-366 48,-366"/>
<polygon fill="#ffffff" stroke="transparent" points="58,-366 58,-436 288,-436 288,-366 58,-366"/>
<polygon fill="none" stroke="black" points="58,-366 58,-436 288,-436 288,-366 58,-366"/>
<text text-anchor="start" x="129.5" y="-419.8" font-family="Times New Roman,serif" font-size="14.00">Issue_MPP_15</text>
<text text-anchor="start" x="63" y="-404.8" font-family="Times New Roman,serif" font-size="14.00">API_Deprecate redundant API features</text>
<text text-anchor="start" x="154" y="-389.8" font-family="Times New Roman,serif" font-size="14.00">To Do</text>
<text text-anchor="start" x="131" y="-374.8" font-family="Times New Roman,serif" font-size="14.00">Andrew_Hiron</text>
<polygon fill="#ffffff" stroke="transparent" points="48,-341 48,-366 288,-366 288,-341 48,-341"/>
<polygon fill="none" stroke="black" points="48,-341 48,-366 288,-366 288,-341 48,-341"/>
<text text-anchor="start" x="88" y="-349.8" font-family="Times New Roman,serif" font-size="14.00">API optimisation and update</text>
<polygon fill="#ff8000" stroke="transparent" points="48,-316 48,-341 288,-341 288,-316 48,-316"/>
<polygon fill="none" stroke="black" points="48,-316 48,-341 288,-341 288,-316 48,-316"/>
<text text-anchor="start" x="131.5" y="-324.8" font-family="Times New Roman,serif" font-size="14.00">Orange Core</text>></a></g>
<!-- Issue_MPP_14 -->
<g id="node8" class="node"><a href ="https://bluesheenah.atlassian.net/browse/MPP-14"  >
<title>Issue_MPP_14</title>
<polygon fill="#00cc00" stroke="transparent" points="55,-504 55,-574 65,-574 65,-504 55,-504"/>
<polygon fill="none" stroke="black" points="55,-504 55,-574 65,-574 65,-504 55,-504"/>
<polygon fill="#00cc00" stroke="transparent" points="65,-504 65,-574 281,-574 281,-504 65,-504"/>
<polygon fill="none" stroke="black" points="65,-504 65,-574 281,-574 281,-504 65,-504"/>
<text text-anchor="start" x="129.5" y="-557.8" font-family="Times New Roman,serif" font-size="14.00">Issue_MPP_14</text>
<text text-anchor="start" x="70" y="-542.8" font-family="Times New Roman,serif" font-size="14.00">API_Identify redundant API features</text>
<text text-anchor="start" x="140.5" y="-527.8" font-family="Times New Roman,serif" font-size="14.00">In Progress</text>
<text text-anchor="start" x="131" y="-512.8" font-family="Times New Roman,serif" font-size="14.00">Andrew_Hiron</text>
<polygon fill="#00cc00" stroke="transparent" points="55,-479 55,-504 281,-504 281,-479 55,-479"/>
<polygon fill="none" stroke="black" points="55,-479 55,-504 281,-504 281,-479 55,-479"/>
<text text-anchor="start" x="88" y="-487.8" font-family="Times New Roman,serif" font-size="14.00">API optimisation and update</text>
<polygon fill="#ff8000" stroke="transparent" points="55,-454 55,-479 281,-479 281,-454 55,-454"/>
<polygon fill="none" stroke="black" points="55,-454 55,-479 281,-479 281,-454 55,-454"/>
<text text-anchor="start" x="131.5" y="-462.8" font-family="Times New Roman,serif" font-size="14.00">Orange Core</text>></a></g>
<!-- Issue_MPP_13 -->
<g id="node9" class="node"><a href ="https://bluesheenah.atlassian.net/browse/MPP-13"  >
<title>Issue_MPP_13</title>
<polygon fill="#00cc00" stroke="transparent" points="758,-104 758,-174 768,-174 768,-104 758,-104"/>
<polygon fill="none" stroke="black" points="758,-104 758,-174 768,-174 768,-104 758,-104"/>
<polygon fill="#ffffff" stroke="transparent" points="768,-104 768,-174 974,-174 974,-104 768,-104"/>
<polygon fill="none" stroke="black" points="768,-104 768,-174 974,-174 974,-104 768,-104"/>
<text text-anchor="start" x="827.5" y="-157.8" font-family="Times New Roman,serif" font-size="14.00">Issue_MPP_13</text>
<text text-anchor="start" x="773" y="-142.8" font-family="Times New Roman,serif" font-size="14.00">UI_Modernise the UI for Feature 2</text>
<text text-anchor="start" x="852" y="-127.8" font-family="Times New Roman,serif" font-size="14.00">To Do</text>
<text text-anchor="start" x="833" y="-112.8" font-family="Times New Roman,serif" font-size="14.00">Theo_Macris</text>
<polygon fill="#ffffff" stroke="transparent" points="758,-79 758,-104 974,-104 974,-79 758,-79"/>
<polygon fill="none" stroke="black" points="758,-79 758,-104 974,-104 974,-79 758,-79"/>
<text text-anchor="start" x="817.5" y="-87.8" font-family="Times New Roman,serif" font-size="14.00">UI modernisation</text>
<polygon fill="#ff8000" stroke="transparent" points="758,-54 758,-79 974,-79 974,-54 758,-54"/>
<polygon fill="none" stroke="black" points="758,-54 758,-79 974,-79 974,-54 758,-54"/>
<text text-anchor="start" x="829.5" y="-62.8" font-family="Times New Roman,serif" font-size="14.00">Orange Core</text>></a></g>
<!-- Issue_MPP_12 -->
<g id="node10" class="node"><a href ="https://bluesheenah.atlassian.net/browse/MPP-12"  >
<title>Issue_MPP_12</title>
<polygon fill="#00cc00" stroke="transparent" points="758,-242 758,-312 768,-312 768,-242 758,-242"/>
<polygon fill="none" stroke="black" points="758,-242 758,-312 768,-312 768,-242 758,-242"/>
<polygon fill="#00cc00" stroke="transparent" points="768,-242 768,-312 974,-312 974,-242 768,-242"/>
<polygon fill="none" stroke="black" points="768,-242 768,-312 974,-312 974,-242 768,-242"/>
<text text-anchor="start" x="827.5" y="-295.8" font-family="Times New Roman,serif" font-size="14.00">Issue_MPP_12</text>
<text text-anchor="start" x="773" y="-280.8" font-family="Times New Roman,serif" font-size="14.00">UI_Modernise the UI for Feature 1</text>
<text text-anchor="start" x="838.5" y="-265.8" font-family="Times New Roman,serif" font-size="14.00">In Progress</text>
<text text-anchor="start" x="833" y="-250.8" font-family="Times New Roman,serif" font-size="14.00">Theo_Macris</text>
<polygon fill="#00cc00" stroke="transparent" points="758,-217 758,-242 974,-242 974,-217 758,-217"/>
<polygon fill="none" stroke="black" points="758,-217 758,-242 974,-242 974,-217 758,-217"/>
<text text-anchor="start" x="817.5" y="-225.8" font-family="Times New Roman,serif" font-size="14.00">UI modernisation</text>
<polygon fill="#ff8000" stroke="transparent" points="758,-192 758,-217 974,-217 974,-192 758,-192"/>
<polygon fill="none" stroke="black" points="758,-192 758,-217 974,-217 974,-192 758,-192"/>
<text text-anchor="start" x="829.5" y="-200.8" font-family="Times New Roman,serif" font-size="14.00">Orange Core</text>></a></g>
<!-- Issue_MPP_11 -->
<g id="node11" class="node"><a href ="https://bluesheenah.atlassian.net/browse/MPP-11"  >
<title>Issue_MPP_11</title>
<polygon fill="#00cc00" stroke="transparent" points="456,-104 456,-174 466,-174 466,-104 456,-104"/>
<polygon fill="none" stroke="black" points="456,-104 456,-174 466,-174 466,-104 456,-104"/>
<polygon fill="#ffffff" stroke="transparent" points="466,-104 466,-174 638,-174 638,-104 466,-104"/>
<polygon fill="none" stroke="black" points="466,-104 466,-174 638,-174 638,-104 466,-104"/>
<text text-anchor="start" x="508.5" y="-157.8" font-family="Times New Roman,serif" font-size="14.00">Issue_MPP_11</text>
<text text-anchor="start" x="471" y="-142.8" font-family="Times New Roman,serif" font-size="14.00">DB_Deploy new DB schema</text>
<text text-anchor="start" x="533" y="-127.8" font-family="Times New Roman,serif" font-size="14.00">To Do</text>
<text text-anchor="start" x="512" y="-112.8" font-family="Times New Roman,serif" font-size="14.00">Kapil_Chadha</text>
<polygon fill="#ffffff" stroke="transparent" points="456,-79 456,-104 638,-104 638,-79 456,-79"/>
<polygon fill="none" stroke="black" points="456,-79 456,-104 638,-104 638,-79 456,-79"/>
<text text-anchor="start" x="470" y="-87.8" font-family="Times New Roman,serif" font-size="14.00">Database Schema re&#45;design</text>
<polygon fill="#ff8000" stroke="transparent" points="456,-54 456,-79 638,-79 638,-54 456,-54"/>
<polygon fill="none" stroke="black" points="456,-54 456,-79 638,-79 638,-54 456,-54"/>
<text text-anchor="start" x="510.5" y="-62.8" font-family="Times New Roman,serif" font-size="14.00">Orange Core</text>></a></g>
<!-- Issue_MPP_10 -->
<g id="node12" class="node"><a href ="https://bluesheenah.atlassian.net/browse/MPP-10"  >
<title>Issue_MPP_10</title>
<polygon fill="#00cc00" stroke="transparent" points="372,-242 372,-312 382,-312 382,-242 372,-242"/>
<polygon fill="none" stroke="black" points="372,-242 372,-312 382,-312 382,-242 372,-242"/>
<polygon fill="#00cc00" stroke="transparent" points="382,-242 382,-312 722,-312 722,-242 382,-242"/>
<polygon fill="none" stroke="black" points="382,-242 382,-312 722,-312 722,-242 382,-242"/>
<text text-anchor="start" x="508.5" y="-295.8" font-family="Times New Roman,serif" font-size="14.00">Issue_MPP_10</text>
<text text-anchor="start" x="387" y="-280.8" font-family="Times New Roman,serif" font-size="14.00">DB_Re&#45;design DB Schema for efficiency and performance</text>
<text text-anchor="start" x="519.5" y="-265.8" font-family="Times New Roman,serif" font-size="14.00">In Progress</text>
<text text-anchor="start" x="512" y="-250.8" font-family="Times New Roman,serif" font-size="14.00">Kapil_Chadha</text>
<polygon fill="#00cc00" stroke="transparent" points="372,-217 372,-242 722,-242 722,-217 372,-217"/>
<polygon fill="none" stroke="black" points="372,-217 372,-242 722,-242 722,-217 372,-217"/>
<text text-anchor="start" x="470" y="-225.8" font-family="Times New Roman,serif" font-size="14.00">Database Schema re&#45;design</text>
<polygon fill="#ff8000" stroke="transparent" points="372,-192 372,-217 722,-217 722,-192 372,-192"/>
<polygon fill="none" stroke="black" points="372,-192 372,-217 722,-217 722,-192 372,-192"/>
<text text-anchor="start" x="510.5" y="-200.8" font-family="Times New Roman,serif" font-size="14.00">Orange Core</text>></a></g>
<!-- Issue_MPP_9 -->
<g id="node13" class="node"><a href ="https://bluesheenah.atlassian.net/browse/MPP-9"  >
<title>Issue_MPP_9</title>
<polygon fill="#00cc00" stroke="transparent" points="442,-380 442,-450 452,-450 452,-380 442,-380"/>
<polygon fill="none" stroke="black" points="442,-380 442,-450 452,-450 452,-380 442,-380"/>
<polygon fill="#ffffff" stroke="transparent" points="452,-380 452,-450 653,-450 653,-380 452,-380"/>
<polygon fill="none" stroke="black" points="452,-380 452,-450 653,-450 653,-380 452,-380"/>
<text text-anchor="start" x="512.5" y="-433.8" font-family="Times New Roman,serif" font-size="14.00">Issue_MPP_9</text>
<text text-anchor="start" x="457" y="-418.8" font-family="Times New Roman,serif" font-size="14.00">DB_Remove redundant DB tables</text>
<text text-anchor="start" x="533.5" y="-403.8" font-family="Times New Roman,serif" font-size="14.00">To Do</text>
<text text-anchor="start" x="512.5" y="-388.8" font-family="Times New Roman,serif" font-size="14.00">Kapil_Chadha</text>
<polygon fill="#ffffff" stroke="transparent" points="442,-355 442,-380 653,-380 653,-355 442,-355"/>
<polygon fill="none" stroke="black" points="442,-355 442,-380 653,-380 653,-355 442,-355"/>
<text text-anchor="start" x="470.5" y="-363.8" font-family="Times New Roman,serif" font-size="14.00">Database Schema re&#45;design</text>
<polygon fill="#ff8000" stroke="transparent" points="442,-330 442,-355 653,-355 653,-330 442,-330"/>
<polygon fill="none" stroke="black" points="442,-330 442,-355 653,-355 653,-330 442,-330"/>
<text text-anchor="start" x="511" y="-338.8" font-family="Times New Roman,serif" font-size="14.00">Orange Core</text>></a></g>
<!-- Issue_MPP_8 -->
<g id="node14" class="node"><a href ="https://bluesheenah.atlassian.net/browse/MPP-8"  >
<title>Issue_MPP_8</title>
<polygon fill="#00cc00" stroke="transparent" points="454,-518 454,-588 464,-588 464,-518 454,-518"/>
<polygon fill="none" stroke="black" points="454,-518 454,-588 464,-588 464,-518 454,-518"/>
<polygon fill="#888888" stroke="transparent" points="464,-518 464,-588 641,-588 641,-518 464,-518"/>
<polygon fill="none" stroke="black" points="464,-518 464,-588 641,-588 641,-518 464,-518"/>
<text text-anchor="start" x="512.5" y="-571.8" font-family="Times New Roman,serif" font-size="14.00">Issue_MPP_8</text>
<text text-anchor="start" x="469" y="-556.8" font-family="Times New Roman,serif" font-size="14.00">DB_Assess current DB usage</text>
<text text-anchor="start" x="537" y="-541.8" font-family="Times New Roman,serif" font-size="14.00">Done</text>
<text text-anchor="start" x="512.5" y="-526.8" font-family="Times New Roman,serif" font-size="14.00">Kapil_Chadha</text>
<polygon fill="#888888" stroke="transparent" points="454,-493 454,-518 641,-518 641,-493 454,-493"/>
<polygon fill="none" stroke="black" points="454,-493 454,-518 641,-518 641,-493 454,-493"/>
<text text-anchor="start" x="470.5" y="-501.8" font-family="Times New Roman,serif" font-size="14.00">Database Schema re&#45;design</text>
<polygon fill="#ff8000" stroke="transparent" points="454,-468 454,-493 641,-493 641,-468 454,-468"/>
<polygon fill="none" stroke="black" points="454,-468 454,-493 641,-493 641,-468 454,-468"/>
<text text-anchor="start" x="511" y="-476.8" font-family="Times New Roman,serif" font-size="14.00">Orange Core</text>></a></g>
<!-- Issue_MPP_7 -->
<g id="node15" class="node"><a href ="https://bluesheenah.atlassian.net/browse/MPP-7"  >
<title>Issue_MPP_7</title>
<polygon fill="#00cc00" stroke="transparent" points="1055.5,-104 1055.5,-174 1128.5,-174 1128.5,-104 1055.5,-104"/>
<polygon fill="none" stroke="black" points="1055.5,-104 1055.5,-174 1128.5,-174 1128.5,-104 1055.5,-104"/>
<polygon fill="#ffffff" stroke="transparent" points="1128.5,-104 1128.5,-174 1318.5,-174 1318.5,-104 1128.5,-104"/>
<polygon fill="none" stroke="black" points="1128.5,-104 1128.5,-174 1318.5,-174 1318.5,-104 1128.5,-104"/>
<text text-anchor="start" x="1183.5" y="-157.8" font-family="Times New Roman,serif" font-size="14.00">Issue_MPP_7</text>
<text text-anchor="start" x="1165" y="-142.8" font-family="Times New Roman,serif" font-size="14.00">Infra_Implement IaC</text>
<text text-anchor="start" x="1204.5" y="-127.8" font-family="Times New Roman,serif" font-size="14.00">To Do</text>
<text text-anchor="start" x="1178.5" y="-112.8" font-family="Times New Roman,serif" font-size="14.00">Andrew_Yahoo</text>
<polygon fill="#ffffff" stroke="transparent" points="1055.5,-79 1055.5,-104 1318.5,-104 1318.5,-79 1055.5,-79"/>
<polygon fill="none" stroke="black" points="1055.5,-79 1055.5,-104 1318.5,-104 1318.5,-79 1055.5,-79"/>
<text text-anchor="start" x="1060.5" y="-87.8" font-family="Times New Roman,serif" font-size="14.00">Cloud platform optimisation for performance</text>
<polygon fill="#66bbee" stroke="transparent" points="1055.5,-54 1055.5,-79 1318.5,-79 1318.5,-54 1055.5,-54"/>
<polygon fill="none" stroke="black" points="1055.5,-54 1055.5,-79 1318.5,-79 1318.5,-54 1055.5,-54"/>
<text text-anchor="start" x="1156.5" y="-62.8" font-family="Times New Roman,serif" font-size="14.00">Contractor</text>></a></g>
<!-- Issue_MPP_6 -->
<g id="node16" class="node"><a href ="https://bluesheenah.atlassian.net/browse/MPP-6"  >
<title>Issue_MPP_6</title>
<polygon fill="#00cc00" stroke="transparent" points="1010.5,-242 1010.5,-312 1020.5,-312 1020.5,-242 1010.5,-242"/>
<polygon fill="none" stroke="black" points="1010.5,-242 1010.5,-312 1020.5,-312 1020.5,-242 1010.5,-242"/>
<polygon fill="#ffffff" stroke="transparent" points="1020.5,-242 1020.5,-312 1363.5,-312 1363.5,-242 1020.5,-242"/>
<polygon fill="none" stroke="black" points="1020.5,-242 1020.5,-312 1363.5,-312 1363.5,-242 1020.5,-242"/>
<text text-anchor="start" x="1152" y="-295.8" font-family="Times New Roman,serif" font-size="14.00">Issue_MPP_6</text>
<text text-anchor="start" x="1025.5" y="-280.8" font-family="Times New Roman,serif" font-size="14.00">Infra_Provide candidate infrastructure options, with costing</text>
<text text-anchor="start" x="1173" y="-265.8" font-family="Times New Roman,serif" font-size="14.00">To Do</text>
<text text-anchor="start" x="1147" y="-250.8" font-family="Times New Roman,serif" font-size="14.00">Andrew_Yahoo</text>
<polygon fill="#ffffff" stroke="transparent" points="1010.5,-217 1010.5,-242 1363.5,-242 1363.5,-217 1010.5,-217"/>
<polygon fill="none" stroke="black" points="1010.5,-217 1010.5,-242 1363.5,-242 1363.5,-217 1010.5,-217"/>
<text text-anchor="start" x="1060.5" y="-225.8" font-family="Times New Roman,serif" font-size="14.00">Cloud platform optimisation for performance</text>
<polygon fill="#66bbee" stroke="transparent" points="1010.5,-192 1010.5,-217 1363.5,-217 1363.5,-192 1010.5,-192"/>
<polygon fill="none" stroke="black" points="1010.5,-192 1010.5,-217 1363.5,-217 1363.5,-192 1010.5,-192"/>
<text text-anchor="start" x="1156.5" y="-200.8" font-family="Times New Roman,serif" font-size="14.00">Contractor</text>></a></g>
<!-- Issue_MPP_5 -->
<g id="node17" class="node"><a href ="https://bluesheenah.atlassian.net/browse/MPP-5"  >
<title>Issue_MPP_5</title>
<polygon fill="#00cc00" stroke="transparent" points="1035.5,-380 1035.5,-450 1045.5,-450 1045.5,-380 1035.5,-380"/>
<polygon fill="none" stroke="black" points="1035.5,-380 1035.5,-450 1045.5,-450 1045.5,-380 1035.5,-380"/>
<polygon fill="#ff0000" stroke="transparent" points="1045.5,-380 1045.5,-450 1338.5,-450 1338.5,-380 1045.5,-380"/>
<polygon fill="none" stroke="black" points="1045.5,-380 1045.5,-450 1338.5,-450 1338.5,-380 1045.5,-380"/>
<text text-anchor="start" x="1152" y="-433.8" font-family="Times New Roman,serif" font-size="14.00">Issue_MPP_5</text>
<text text-anchor="start" x="1050.5" y="-418.8" font-family="Times New Roman,serif" font-size="14.00">Blocked_Infra_Assess current infrastructure usage</text>
<text text-anchor="start" x="1168.5" y="-403.8" font-family="Times New Roman,serif" font-size="14.00">Blocked</text>
<text text-anchor="start" x="1147" y="-388.8" font-family="Times New Roman,serif" font-size="14.00">Andrew_Yahoo</text>
<polygon fill="#ff0000" stroke="transparent" points="1035.5,-355 1035.5,-380 1338.5,-380 1338.5,-355 1035.5,-355"/>
<polygon fill="none" stroke="black" points="1035.5,-355 1035.5,-380 1338.5,-380 1338.5,-355 1035.5,-355"/>
<text text-anchor="start" x="1060.5" y="-363.8" font-family="Times New Roman,serif" font-size="14.00">Cloud platform optimisation for performance</text>
<polygon fill="#66bbee" stroke="transparent" points="1035.5,-330 1035.5,-355 1338.5,-355 1338.5,-330 1035.5,-330"/>
<polygon fill="none" stroke="black" points="1035.5,-330 1035.5,-355 1338.5,-355 1338.5,-330 1035.5,-330"/>
<text text-anchor="start" x="1156.5" y="-338.8" font-family="Times New Roman,serif" font-size="14.00">Contractor</text>></a></g>
</g>
</svg>
