<?xml version="1.0" encoding="UTF-8" standalone="no"?>
<!DOCTYPE svg PUBLIC "-//W3C//DTD SVG 1.1//EN"
 "http://www.w3.org/Graphics/SVG/1.1/DTD/svg11.dtd">
<!-- Generated by graphviz version 2.47.3 (20210619.1520)
 -->
<!-- Title: html Pages: 1 -->
<svg width="800pt" height="600pt"
 viewBox="0.00 0.00 2078.00 428.00" xmlns="http://www.w3.org/2000/svg" xmlns:xlink="http://www.w3.org/1999/xlink">
<g id="graph0" class="graph" transform="scale(1 1) rotate(0) translate(4 424)">
<title>html</title>
<polygon fill="white" stroke="transparent" points="-4,4 -4,-424 2074,-424 2074,4 -4,4"/>
<!-- Unplanned -->
<g id="node1" class="node">
<title>Unplanned</title>
<text text-anchor="middle" x="38.5" y="-14.3" font-family="Times New Roman,serif" font-size="14.00">Unplanned</text>
</g>
<!-- 2110 -->
<g id="node2" class="node">
<title>2110</title>
<text text-anchor="middle" x="400.5" y="-14.3" font-family="Times New Roman,serif" font-size="14.00">2110</text>
</g>
<!-- Unplanned&#45;&gt;2110 -->
<g id="edge1" class="edge">
<title>Unplanned&#45;&gt;2110</title>
<path fill="none" stroke="black" d="M77.01,-18C146.41,-18 294.04,-18 362.82,-18"/>
<polygon fill="black" stroke="black" points="363.16,-21.5 373.16,-18 363.16,-14.5 363.16,-21.5"/>
</g>
<!-- 2111 -->
<g id="node3" class="node">
<title>2111</title>
<text text-anchor="middle" x="947" y="-14.3" font-family="Times New Roman,serif" font-size="14.00">2111</text>
</g>
<!-- 2110&#45;&gt;2111 -->
<g id="edge2" class="edge">
<title>2110&#45;&gt;2111</title>
<path fill="none" stroke="black" d="M427.76,-18C516.7,-18 806.73,-18 909.49,-18"/>
<polygon fill="black" stroke="black" points="909.68,-21.5 919.68,-18 909.68,-14.5 909.68,-21.5"/>
</g>
<!-- 2112 -->
<g id="node4" class="node">
<title>2112</title>
<text text-anchor="middle" x="1233" y="-14.3" font-family="Times New Roman,serif" font-size="14.00">2112</text>
</g>
<!-- 2111&#45;&gt;2112 -->
<g id="edge3" class="edge">
<title>2111&#45;&gt;2112</title>
<path fill="none" stroke="black" d="M974.21,-18C1025.14,-18 1137.57,-18 1195.67,-18"/>
<polygon fill="black" stroke="black" points="1195.85,-21.5 1205.85,-18 1195.85,-14.5 1195.85,-21.5"/>
</g>
<!-- 2201 -->
<g id="node5" class="node">
<title>2201</title>
<text text-anchor="middle" x="1323" y="-14.3" font-family="Times New Roman,serif" font-size="14.00">2201</text>
</g>
<!-- 2112&#45;&gt;2201 -->
<g id="edge4" class="edge">
<title>2112&#45;&gt;2201</title>
<path fill="none" stroke="black" d="M1260.4,-18C1268.39,-18 1277.31,-18 1285.82,-18"/>
<polygon fill="black" stroke="black" points="1285.92,-21.5 1295.92,-18 1285.92,-14.5 1285.92,-21.5"/>
</g>
<!-- 2202 -->
<g id="node6" class="node">
<title>2202</title>
<text text-anchor="middle" x="1413" y="-14.3" font-family="Times New Roman,serif" font-size="14.00">2202</text>
</g>
<!-- 2201&#45;&gt;2202 -->
<g id="edge5" class="edge">
<title>2201&#45;&gt;2202</title>
<path fill="none" stroke="black" d="M1350.4,-18C1358.39,-18 1367.31,-18 1375.82,-18"/>
<polygon fill="black" stroke="black" points="1375.92,-21.5 1385.92,-18 1375.92,-14.5 1375.92,-21.5"/>
</g>
<!-- 2203 -->
<g id="node7" class="node">
<title>2203</title>
<text text-anchor="middle" x="1503" y="-14.3" font-family="Times New Roman,serif" font-size="14.00">2203</text>
</g>
<!-- 2202&#45;&gt;2203 -->
<g id="edge6" class="edge">
<title>2202&#45;&gt;2203</title>
<path fill="none" stroke="black" d="M1440.4,-18C1448.39,-18 1457.31,-18 1465.82,-18"/>
<polygon fill="black" stroke="black" points="1465.92,-21.5 1475.92,-18 1465.92,-14.5 1465.92,-21.5"/>
</g>
<!-- 2204 -->
<g id="node8" class="node">
<title>2204</title>
<text text-anchor="middle" x="1593" y="-14.3" font-family="Times New Roman,serif" font-size="14.00">2204</text>
</g>
<!-- 2203&#45;&gt;2204 -->
<g id="edge7" class="edge">
<title>2203&#45;&gt;2204</title>
<path fill="none" stroke="black" d="M1530.4,-18C1538.39,-18 1547.31,-18 1555.82,-18"/>
<polygon fill="black" stroke="black" points="1555.92,-21.5 1565.92,-18 1555.92,-14.5 1555.92,-21.5"/>
</g>
<!-- 2205 -->
<g id="node9" class="node">
<title>2205</title>
<text text-anchor="middle" x="1683" y="-14.3" font-family="Times New Roman,serif" font-size="14.00">2205</text>
</g>
<!-- 2204&#45;&gt;2205 -->
<g id="edge8" class="edge">
<title>2204&#45;&gt;2205</title>
<path fill="none" stroke="black" d="M1620.4,-18C1628.39,-18 1637.31,-18 1645.82,-18"/>
<polygon fill="black" stroke="black" points="1645.92,-21.5 1655.92,-18 1645.92,-14.5 1645.92,-21.5"/>
</g>
<!-- 2206 -->
<g id="node10" class="node">
<title>2206</title>
<text text-anchor="middle" x="1773" y="-14.3" font-family="Times New Roman,serif" font-size="14.00">2206</text>
</g>
<!-- 2205&#45;&gt;2206 -->
<g id="edge9" class="edge">
<title>2205&#45;&gt;2206</title>
<path fill="none" stroke="black" d="M1710.4,-18C1718.39,-18 1727.31,-18 1735.82,-18"/>
<polygon fill="black" stroke="black" points="1735.92,-21.5 1745.92,-18 1735.92,-14.5 1735.92,-21.5"/>
</g>
<!-- 2207 -->
<g id="node11" class="node">
<title>2207</title>
<text text-anchor="middle" x="1863" y="-14.3" font-family="Times New Roman,serif" font-size="14.00">2207</text>
</g>
<!-- 2206&#45;&gt;2207 -->
<g id="edge10" class="edge">
<title>2206&#45;&gt;2207</title>
<path fill="none" stroke="black" d="M1800.4,-18C1808.39,-18 1817.31,-18 1825.82,-18"/>
<polygon fill="black" stroke="black" points="1825.92,-21.5 1835.92,-18 1825.92,-14.5 1825.92,-21.5"/>
</g>
<!-- 2208 -->
<g id="node12" class="node">
<title>2208</title>
<text text-anchor="middle" x="1953" y="-14.3" font-family="Times New Roman,serif" font-size="14.00">2208</text>
</g>
<!-- 2207&#45;&gt;2208 -->
<g id="edge11" class="edge">
<title>2207&#45;&gt;2208</title>
<path fill="none" stroke="black" d="M1890.4,-18C1898.39,-18 1907.31,-18 1915.82,-18"/>
<polygon fill="black" stroke="black" points="1915.92,-21.5 1925.92,-18 1915.92,-14.5 1915.92,-21.5"/>
</g>
<!-- 2209 -->
<g id="node13" class="node">
<title>2209</title>
<text text-anchor="middle" x="2043" y="-14.3" font-family="Times New Roman,serif" font-size="14.00">2209</text>
</g>
<!-- 2208&#45;&gt;2209 -->
<g id="edge12" class="edge">
<title>2208&#45;&gt;2209</title>
<path fill="none" stroke="black" d="M1980.4,-18C1988.39,-18 1997.31,-18 2005.82,-18"/>
<polygon fill="black" stroke="black" points="2005.92,-21.5 2015.92,-18 2005.92,-14.5 2005.92,-21.5"/>
</g>
<!-- Issue_5 -->
<g id="node14" class="node">
<title>Issue_5</title>
<polygon fill="#ff0000" stroke="transparent" points="233.5,-79 233.5,-164 243.5,-164 243.5,-79 233.5,-79"/>
<polygon fill="none" stroke="black" points="233.5,-79 233.5,-164 243.5,-164 243.5,-79 233.5,-79"/>
<polygon fill="#ffffff" stroke="transparent" points="243.5,-79 243.5,-164 567.5,-164 567.5,-79 243.5,-79"/>
<polygon fill="none" stroke="black" points="243.5,-79 243.5,-164 567.5,-164 567.5,-79 243.5,-79"/>
<text text-anchor="start" x="383.5" y="-147.8" font-family="Times New Roman,serif" font-size="14.00">Issue_5</text>
<text text-anchor="start" x="248.5" y="-132.8" font-family="Times New Roman,serif" font-size="14.00">Bug_ Distribution_ Eco&#45;friendly Delivery route selection</text>
<text text-anchor="start" x="386.5" y="-117.8" font-family="Times New Roman,serif" font-size="14.00">To Do</text>
<text text-anchor="start" x="374.5" y="-102.8" font-family="Times New Roman,serif" font-size="14.00">21/10/2021</text>
<text text-anchor="start" x="363.5" y="-87.8" font-family="Times New Roman,serif" font-size="14.00">Andrew_Hiron</text>
<polygon fill="#00cc00" stroke="transparent" points="233.5,-54 233.5,-79 567.5,-79 567.5,-54 233.5,-54"/>
<polygon fill="none" stroke="black" points="233.5,-54 233.5,-79 567.5,-79 567.5,-54 233.5,-54"/>
<text text-anchor="start" x="364" y="-62.8" font-family="Times New Roman,serif" font-size="14.00">Orange Core</text>
</g>
<!-- Issue_4 -->
<g id="node15" class="node">
<title>Issue_4</title>
<polygon fill="#ff0000" stroke="transparent" points="113.5,-207 113.5,-292 123.5,-292 123.5,-207 113.5,-207"/>
<polygon fill="none" stroke="black" points="113.5,-207 113.5,-292 123.5,-292 123.5,-207 113.5,-207"/>
<polygon fill="#ff0000" stroke="transparent" points="123.5,-207 123.5,-292 688.5,-292 688.5,-207 123.5,-207"/>
<polygon fill="none" stroke="black" points="123.5,-207 123.5,-292 688.5,-292 688.5,-207 123.5,-207"/>
<text text-anchor="start" x="384" y="-275.8" font-family="Times New Roman,serif" font-size="14.00">Issue_4</text>
<text text-anchor="start" x="128.5" y="-260.8" font-family="Times New Roman,serif" font-size="14.00">Blocked _ Bug _ Distribution_ Automated tracking and scheduling of Delivery Vehicle maintenance</text>
<text text-anchor="start" x="382.5" y="-245.8" font-family="Times New Roman,serif" font-size="14.00">Blocked</text>
<text text-anchor="start" x="375" y="-230.8" font-family="Times New Roman,serif" font-size="14.00">24/10/2021</text>
<text text-anchor="start" x="364" y="-215.8" font-family="Times New Roman,serif" font-size="14.00">Andrew_Hiron</text>
<polygon fill="#00cc00" stroke="transparent" points="113.5,-182 113.5,-207 688.5,-207 688.5,-182 113.5,-182"/>
<polygon fill="none" stroke="black" points="113.5,-182 113.5,-207 688.5,-207 688.5,-182 113.5,-182"/>
<text text-anchor="start" x="364.5" y="-190.8" font-family="Times New Roman,serif" font-size="14.00">Orange Core</text>
</g>
<!-- Issue_6 -->
<g id="node16" class="node">
<title>Issue_6</title>
<polygon fill="#00cc00" stroke="transparent" points="260.5,-335 260.5,-420 270.5,-420 270.5,-335 260.5,-335"/>
<polygon fill="none" stroke="black" points="260.5,-335 260.5,-420 270.5,-420 270.5,-335 260.5,-335"/>
<polygon fill="#00cc00" stroke="transparent" points="270.5,-335 270.5,-420 541.5,-420 541.5,-335 270.5,-335"/>
<polygon fill="none" stroke="black" points="270.5,-335 270.5,-420 541.5,-420 541.5,-335 270.5,-335"/>
<text text-anchor="start" x="384" y="-403.8" font-family="Times New Roman,serif" font-size="14.00">Issue_6</text>
<text text-anchor="start" x="275.5" y="-388.8" font-family="Times New Roman,serif" font-size="14.00">Warehouse_ New Inventory Management Pilot</text>
<text text-anchor="start" x="389" y="-373.8" font-family="Times New Roman,serif" font-size="14.00">Doing</text>
<text text-anchor="start" x="375" y="-358.8" font-family="Times New Roman,serif" font-size="14.00">30/10/2021</text>
<text text-anchor="start" x="361" y="-343.8" font-family="Times New Roman,serif" font-size="14.00">Andrew_Yahoo</text>
<polygon fill="#00cc00" stroke="transparent" points="260.5,-310 260.5,-335 541.5,-335 541.5,-310 260.5,-310"/>
<polygon fill="none" stroke="black" points="260.5,-310 260.5,-335 541.5,-335 541.5,-310 260.5,-310"/>
<text text-anchor="start" x="364.5" y="-318.8" font-family="Times New Roman,serif" font-size="14.00">Orange Core</text>
</g>
<!-- Issue_7 -->
<g id="node17" class="node">
<title>Issue_7</title>
<polygon fill="#00cc00" stroke="transparent" points="724,-79 724,-164 734,-164 734,-79 724,-79"/>
<polygon fill="none" stroke="black" points="724,-79 724,-164 734,-164 734,-79 724,-79"/>
<polygon fill="#00cc00" stroke="transparent" points="734,-79 734,-164 1170,-164 1170,-79 734,-79"/>
<polygon fill="none" stroke="black" points="734,-79 734,-164 1170,-164 1170,-79 734,-79"/>
<text text-anchor="start" x="930" y="-147.8" font-family="Times New Roman,serif" font-size="14.00">Issue_7</text>
<text text-anchor="start" x="739" y="-132.8" font-family="Times New Roman,serif" font-size="14.00">Warehouse_ Company&#45;wide roll&#45;out of New Inventory Management System</text>
<text text-anchor="start" x="919.5" y="-117.8" font-family="Times New Roman,serif" font-size="14.00">In Progress</text>
<text text-anchor="start" x="921" y="-102.8" font-family="Times New Roman,serif" font-size="14.00">10/11/2021</text>
<text text-anchor="start" x="907" y="-87.8" font-family="Times New Roman,serif" font-size="14.00">Andrew_Yahoo</text>
<polygon fill="#00cc00" stroke="transparent" points="724,-54 724,-79 1170,-79 1170,-54 724,-54"/>
<polygon fill="none" stroke="black" points="724,-54 724,-79 1170,-79 1170,-54 724,-54"/>
<text text-anchor="start" x="910.5" y="-62.8" font-family="Times New Roman,serif" font-size="14.00">Orange Core</text>
</g>
<!-- Issue_8 -->
<g id="node18" class="node">
<title>Issue_8</title>
<polygon fill="#00cc00" stroke="transparent" points="829,-207 829,-292 839,-292 839,-207 829,-207"/>
<polygon fill="none" stroke="black" points="829,-207 829,-292 839,-292 839,-207 829,-207"/>
<polygon fill="#888888" stroke="transparent" points="839,-207 839,-292 1066,-292 1066,-207 839,-207"/>
<polygon fill="none" stroke="black" points="839,-207 839,-292 1066,-292 1066,-207 839,-207"/>
<text text-anchor="start" x="930.5" y="-275.8" font-family="Times New Roman,serif" font-size="14.00">Issue_8</text>
<text text-anchor="start" x="844" y="-260.8" font-family="Times New Roman,serif" font-size="14.00">Store_ Garment Tracking System Pilot</text>
<text text-anchor="start" x="937" y="-245.8" font-family="Times New Roman,serif" font-size="14.00">Done</text>
<text text-anchor="start" x="921.5" y="-230.8" font-family="Times New Roman,serif" font-size="14.00">15/11/2021</text>
<text text-anchor="start" x="905.5" y="-215.8" font-family="Times New Roman,serif" font-size="14.00">Andrew_Google</text>
<polygon fill="#ff0000" stroke="transparent" points="829,-182 829,-207 1066,-207 1066,-182 829,-182"/>
<polygon fill="none" stroke="black" points="829,-182 829,-207 1066,-207 1066,-182 829,-182"/>
<text text-anchor="start" x="917" y="-190.8" font-family="Times New Roman,serif" font-size="14.00">Contractor</text>
</g>
<!-- Issue_9 -->
<g id="node19" class="node">
<title>Issue_9</title>
<polygon fill="#00cc00" stroke="transparent" points="769,-335 769,-420 779,-420 779,-335 769,-335"/>
<polygon fill="none" stroke="black" points="769,-335 769,-420 779,-420 779,-335 769,-335"/>
<polygon fill="#888888" stroke="transparent" points="779,-335 779,-420 1126,-420 1126,-335 779,-335"/>
<polygon fill="none" stroke="black" points="779,-335 779,-420 1126,-420 1126,-335 779,-335"/>
<text text-anchor="start" x="930.5" y="-403.8" font-family="Times New Roman,serif" font-size="14.00">Issue_9</text>
<text text-anchor="start" x="784" y="-388.8" font-family="Times New Roman,serif" font-size="14.00">Store_ Company&#45;wide roll&#45;out of Garment Tracking System</text>
<text text-anchor="start" x="933" y="-373.8" font-family="Times New Roman,serif" font-size="14.00">DONE</text>
<text text-anchor="start" x="921.5" y="-358.8" font-family="Times New Roman,serif" font-size="14.00">21/11/2021</text>
<text text-anchor="start" x="905.5" y="-343.8" font-family="Times New Roman,serif" font-size="14.00">Andrew_Google</text>
<polygon fill="#ff0000" stroke="transparent" points="769,-310 769,-335 1126,-335 1126,-310 769,-310"/>
<polygon fill="none" stroke="black" points="769,-310 769,-335 1126,-335 1126,-310 769,-310"/>
<text text-anchor="start" x="917" y="-318.8" font-family="Times New Roman,serif" font-size="14.00">Contractor</text>
</g>
</g>
</svg>
